<svg xmlns="http://www.w3.org/2000/svg" viewBox="0 0 107.79 108.34"><defs><style>.cls-1{fill:none;stroke:#5f1ec4;stroke-miterlimit:10;stroke-width:2px;}.cls-2{fill:#fd8a00;}</style></defs><g id="Layer_2" data-name="Layer 2"><g id="Layer_5" data-name="Layer 5"><path class="cls-1" d="M50.57,1h6.61a5.71,5.71,0,0,0,.8.17A52.27,52.27,0,0,1,80.25,8.08a53.4,53.4,0,0,1,26,53.2,52,52,0,0,1-16.62,32c-12.18,11.16-26.6,15.66-42.93,13.59a50.56,50.56,0,0,1-27.58-12.6A52.37,52.37,0,0,1,1.82,63.45c-.35-2-.55-4-.82-6V50.86c.15-1.27.28-2.54.46-3.8A52.43,52.43,0,0,1,14.59,18.62,51.77,51.77,0,0,1,44.87,1.8C46.76,1.47,48.67,1.26,50.57,1Zm3.32,36.23c-.62-.69-1-1.21-1.49-1.67a17,17,0,0,0-15.81-4.84A17.21,17.21,0,0,0,23,50.29a20.34,20.34,0,0,0,6.2,11.33C36.34,68.64,44,75,51.67,81.39c1.58,1.32,2.83,1.34,4.42,0,4.22-3.56,8.49-7,12.61-10.72,3.81-3.4,7.59-6.85,11.13-10.52a17.15,17.15,0,0,0,4.93-14.83c-1-7-4.93-11.76-11.53-14s-12.55-.74-17.66,4C55,35.86,54.56,36.48,53.89,37.23Z"/><path class="cls-2" d="M53.87,76.11c-2.87-2.44-5.73-4.76-8.48-7.22q-6.28-5.61-12.45-11.37a13.45,13.45,0,0,1-4.49-8.42,11.58,11.58,0,0,1,6.26-11.94,11.81,11.81,0,0,1,13.43,1.93c1.2,1.14,2.33,2.35,3.52,3.51a2.87,2.87,0,0,0,4.45,0c1.18-1.16,2.29-2.39,3.52-3.5a11.35,11.35,0,0,1,11.6-2.63,11,11,0,0,1,7.93,8.74,12,12,0,0,1-3.59,11.48c-4.8,4.65-9.81,9.09-14.78,13.57C58.57,72.26,56.22,74.12,53.87,76.11Z"/></g></g></svg>