<svg xmlns="http://www.w3.org/2000/svg" viewBox="0 0 1926 1282.97"><defs><style>.cls-1{opacity:0.39;}.cls-2{fill:#634de9;}.cls-3{fill:#c994f4;}.cls-4{fill:#efc4c3;}.cls-5{fill:#6a53e5;}.cls-6{fill:#785fe4;}.cls-7{fill:#7e63e2;}.cls-8{fill:#866ae0;}.cls-9{fill:#725ae4;}.cls-10{fill:#d0a4cb;}.cls-11{fill:#daacca;}.cls-12{fill:#d09cf3;}.cls-13{fill:#c49ccf;}.cls-14{fill:#e3b5c7;}.cls-15{fill:#f6e1e3;}.cls-16{fill:#e8abf1;}.cls-17{fill:#ecbcc4;}.cls-18{fill:#8e71de;}.cls-19{fill:#c199d9;}.cls-20{fill:#ecc0e8;}.cls-21{fill:#d7a3f1;}.cls-22{fill:#ba93d3;}.cls-23{fill:#a180d9;}.cls-24{fill:#ab88d6;}.cls-25{fill:#d6a9dd;}.cls-26{fill:#cea3db;}.cls-27{fill:#9878db;}.cls-28{fill:#b48ed4;}.cls-29{fill:#ddaee1;}.cls-30{fill:#efc4d3;}.cls-31{fill:#e4b6ce;}</style></defs><g id="Layer_2" data-name="Layer 2"><g id="Camada_3" data-name="Camada 3"><g class="cls-1"><path class="cls-2" d="M1926,372.28V667.64c-5.55-2.19-12.07-3.2-16.48-6.79-12.9-10.51-25-22-37.33-33.21-16.13-14.76-31.58-30.29-48.27-44.37-32.87-27.74-66.81-54.22-99.53-82.13-29.51-25.17-58.06-51.47-86.87-77.45-5.51-5-9.57-6.6-14.92.54-8.52,11.35-17.23,22.74-27.33,32.6-3.87,3.78-13.93,6.71-17.51,4.38a505.67,505.67,0,0,1-51.23-37.95c-39.53-33.52-78.46-67.73-117.48-101.85-34.84-30.47-69.26-61.43-104.24-91.75-42.62-36.94-85.66-73.39-128.44-110.14-30.19-25.94-63-49.54-89.58-78.75-27.3-30-58-39.92-96.07-34.62l-24.6-3L987.53,3l514.08-.15c.94.16,1.89.27,2.84.34l12.33,21.47c20.7,36.68,34.17,77.6,75.36,100.41,25.12,13.91,48.27,26.9,78.06,22.9,12-1.62,24.51-.19,36.78-.14l27.21,43.3,1.32,2.82,2.5,3.83,15.54,26.85c26.74,47,53.27,94.14,80.59,140.8,2.32,3.95,9.9,6.64,15.12,6.77C1874.82,372.8,1900.42,372.35,1926,372.28Z"/><path class="cls-3" d="M1701.4,1283H1313.74c-4.89-6.3-8.51-14.85-14.92-18.5-21.13-12-43.6-21.68-64.86-33.5-8.76-4.87-15.88-12.8-23.47-19.64-2.13-1.92-2.7-5.82-5-7.29-25.63-16.57-50.92-33.75-77.35-49-36.08-20.76-73.49-39.23-109.41-60.25-10.91-6.38-18.78-17.95-28-27.14,1.52-14.78,9.56-22.22,24.56-21.79H1150.6l3.17.1c2.4,3.71,4,8.79,7.35,10.89q39.63,24.52,79.94,47.93c11.2,6.47,17.12,3.15,20.33-9.62l9.15-3c17.44,4.12,34.9,8.19,52.3,12.46,1.88.46,3.32,2.53,5.2,3.18,6.15,2.15,12.51,3.7,18.59,6,7,2.63,13.77,5.69,20.54,8.78,18.24,8.33,36.26,17.17,54.7,25.05,15.36,6.56,31.28,11.81,46.77,18.09,6.81,2.76,13,7.12,19.77,9.9,19.84,8.09,40.09,15.19,59.74,23.7,37.84,16.39,75.6,33,112.93,50.53C1677,1257.36,1697.73,1260.11,1701.4,1283Z"/><path class="cls-4" d="M446.12,1283H0V1153.75c3.41,2.7,6.61,5.71,10.27,8,4.37,2.76,9.12,7,13.72,7q104.52.66,209,.09c4.09,0,10.15-1.83,11.92-4.81,12.21-20.56,23.53-41.67,35.13-62.6q8.08-12.78,16.17-25.58l26.7-42.13c12.28,15.59,40.21,14.46,43.09,40.35.17,1.61,3.87,3,6.11,4.19,22.22,11.52,42.63,25.27,59.09,44.57,8.17,9.6,16.51,19.74,26.77,26.7,15,10.22,31.1,18.69,40.57,35.15-2.11,4.6-4,9.34-6.37,13.78Q469.27,1240.78,446.12,1283Z"/><path class="cls-5" d="M990.72,6.15c38.1-5.3,68.77,4.66,96.07,34.62,26.61,29.21,59.39,52.81,89.58,78.75,42.78,36.75,85.82,73.2,128.44,110.14,35,30.32,69.4,61.28,104.24,91.75,39,34.12,78,68.33,117.48,101.85a505.67,505.67,0,0,0,51.23,37.95c3.58,2.33,13.64-.6,17.51-4.38,10.1-9.86,18.81-21.25,27.33-32.6,5.35-7.14,9.41-5.5,14.92-.54,28.81,26,57.36,52.28,86.87,77.45,32.72,27.91,66.66,54.39,99.53,82.13,16.69,14.08,32.14,29.61,48.27,44.37,12.29,11.24,24.43,22.7,37.33,33.21,4.41,3.59,10.93,4.6,16.48,6.79V778.4c-14.91-1.71-27.68-6.25-34.31-21.7-2.09-4.87-6.81-9-11.1-12.48-14.59-11.9-28.72-24.66-44.54-34.7-21-13.33-33.91-37.57-60-43.95-1.74-.43-3.65-4-3.87-6.19-1.37-13.81-10.63-20.83-21.33-27.69s-20.35-15-30-23.16c-19-16-37.91-32.12-56.42-48.68-20.2-18.07-40.88-35.78-59.45-55.45-10.62-11.26-20-12.9-31.58-4.64-10.58,7.57-18.09,4.68-26.83-3.55-22.09-20.78-44.77-40.94-67.57-60.94-27.76-24.34-56-48.15-83.84-72.4-13.05-11.37-25.4-23.56-38.56-34.81-23.94-20.45-48.41-40.27-72.33-60.74-20.8-17.81-40.92-36.41-61.74-54.21-37.09-31.7-74.64-62.87-111.71-94.61-30.88-26.45-62-52.71-91.63-80.5C1009,28.43,991.71,24.21,990.72,6.15Z"/><path class="cls-6" d="M1926,849.17v86.14c-13.43.53-20.56-5.91-26.91-18.08-5.6-10.72-16.52-18.9-25.86-27.35-5.45-4.94-12.89-7.62-18.61-12.31-15.34-12.55-29.14-27.35-45.68-37.91-11.08-7.07-22.92-11.57-27.78-25.14-.67-1.86-4.33-2.51-6.32-4.07-11.22-8.81-26.18-13.25-29.47-30.88-1.13-6.08-9.67-11.69-16-15.7-15.06-9.56-30.87-17.92-46.21-27.06-2.92-1.74-6.78-4.52-7.27-7.33-2.87-16.63-16.46-19.75-28.87-25.75-9.38-4.54-22.34-11.24-24.44-19.38-5.19-20.06-10.14-27.51-23.62-27.61-17.86-15.47-31.61-28.64-46.64-40.14-32.75-25.05-29.73-17.1-20-50.78,1.61-5.62.35-15-3.43-18.74-19.12-18.87-39.4-36.58-59.5-54.44-9.91-8.81-20.36-17-30.5-25.57-28.78-24.28-57.72-48.38-86.26-72.94-32.82-28.26-65.26-56.95-97.9-85.41-6.81-5.93-14-11.44-20.68-17.54-16.85-15.43-33-31.7-50.33-46.52-35.08-29.94-71.15-58.73-106.12-88.8-24.2-20.8-47-43.23-70.93-64.36-10.64-9.39-22.85-17-33.77-26.06-16-13.31-31.14-27.59-47.21-40.78-9.57-7.85-20.2-14.39-30.35-21.53h18.47c9,1,18,1.79,26.87,3.12,4.85.72,10.77,1,14.15,3.84,33.68,28.61,67,57.69,100.3,86.7q83.13,72.3,166.17,144.69,67.85,59.4,135.21,119.33c8,7,15.51,14.52,23.42,21.6,32.08,28.74,68.75,51.62,97.93,84.45,24.78,27.89,55.91,50.12,84.12,75,11,9.68,22.7,18.8,32.15,29.83s29.37,10.83,30.94,29.81c.11,1.33,2.9,3,4.73,3.55,30.63,9,44.24,39.21,69,55.9,9.54,6.44,12.86,21.74,28.8,20.62,2-.14,4.46,3.8,6.6,6,13.88,14,27,28.82,41.74,41.76,25.13,22,52.63,41.46,76.64,64.57C1875,815.44,1895.64,838.46,1926,849.17Z"/><path class="cls-7" d="M895.32,3.14c10.15,7.13,20.78,13.67,30.35,21.52,16.07,13.19,31.23,27.47,47.21,40.78C983.8,74.53,996,82.11,1006.65,91.5c23.93,21.13,46.73,43.56,70.93,64.36,35,30.07,71,58.86,106.12,88.8,17.36,14.82,33.48,31.09,50.33,46.52,6.66,6.1,13.87,11.61,20.68,17.54,32.64,28.46,65.08,57.15,97.9,85.41,28.54,24.56,57.48,48.66,86.26,72.94,10.14,8.55,20.59,16.76,30.5,25.57,20.1,17.86,40.38,35.57,59.5,54.44,3.78,3.74,5,13.12,3.43,18.74-9.7,33.68-12.72,25.73,20,50.78,15,11.5,28.78,24.67,46.64,40.14,13.48.1,18.43,7.55,23.62,27.61,2.1,8.14,15.06,14.84,24.44,19.38,12.41,6,26,9.12,28.87,25.75.49,2.81,4.35,5.59,7.27,7.33,15.34,9.14,31.15,17.5,46.21,27.06,6.32,4,14.86,9.62,16,15.7,3.29,17.63,18.25,22.07,29.47,30.88,2,1.56,5.65,2.21,6.32,4.07,4.86,13.57,16.7,18.07,27.78,25.14,16.54,10.56,30.34,25.36,45.68,37.91,5.72,4.69,13.16,7.37,18.61,12.31,9.34,8.45,20.26,16.63,25.86,27.35,6.35,12.17,13.48,18.61,26.91,18.08v70.77c-10.1-5.49-21.91-9.21-29.85-16.91-9.63-9.36-18.57-18.67-29.64-27-29.92-22.45-57.77-47.73-85.9-72.5-23.85-21-46.74-43.1-70.43-64.28-31.27-27.95-62.85-55.56-94.41-83.18q-40.07-35.06-80.44-69.77a54.23,54.23,0,0,0-10.17-6.74c-14.4-7.55-31.31-13.05-26.84-35l6.21-21.51c3.33-5,6.82-9.84,10-14.92,9.46-15.28,7.56-23.57-6.06-34.87-21.15-17.56-41.84-35.67-62.69-53.59-29.39-25.27-58.6-50.74-88.15-75.81-19.43-16.49-39.84-31.85-58.89-48.75-30-26.57-58.56-54.69-88.83-80.9-37.62-32.58-76.53-63.66-114.53-95.81-24.76-21-48.76-42.81-73.33-64-17.7-15.26-35.91-29.93-53.64-45.16-22.66-19.46-45.45-38.79-67.41-59-11-10.11-20.21-22.09-30.24-33.23Z"/><path class="cls-8" d="M1498.32,630.71c-4.47,22,12.44,27.47,26.84,35a54.23,54.23,0,0,1,10.17,6.74q40.34,34.77,80.44,69.77c31.56,27.62,63.14,55.23,94.41,83.18,23.69,21.18,46.58,43.28,70.43,64.28,28.13,24.77,56,50,85.9,72.5,11.07,8.3,20,17.61,29.64,27,7.94,7.7,19.75,11.42,29.85,16.91v33.84c-46.5,0-93-.12-139.5.13-5.85,0-11.68,2-17.52,3.07l-5.2-6.72c-15.12-26.73-32-52.61-44.81-80.42-11.34-24.7-26.09-38.89-54.42-34l20.54-10.23-27-16.62c-5-3.08-11-5.26-14.93-9.37-11.54-12-21.15-26-33.57-36.85-29.4-25.72-60.1-50-90-75-23.69-19.84-47.06-40.07-70.56-60.13.07-2,.15-4.08.22-6.12L1464.43,683q10.8-20,21.61-40Z"/><path class="cls-9" d="M1926,849.17c-30.36-10.71-51-33.73-73.45-55.33-24-23.11-51.51-42.55-76.64-64.57-14.77-12.94-27.86-27.79-41.74-41.76-2.14-2.15-4.55-6.09-6.6-6-15.94,1.12-19.26-14.18-28.8-20.62-24.75-16.69-38.36-46.88-69-55.9-1.83-.54-4.62-2.22-4.73-3.55-1.57-19-21.52-18.83-30.94-29.81s-21.17-20.15-32.15-29.83c-28.21-24.86-59.34-47.09-84.12-75-29.18-32.83-65.85-55.71-97.93-84.45-7.91-7.08-15.47-14.56-23.42-21.6Q1289,301.08,1221.28,241.49q-82.89-72.57-166.17-144.69c-33.35-29-66.62-58.09-100.3-86.7-3.38-2.88-9.3-3.12-14.15-3.84-8.91-1.33-17.91-2.11-26.87-3.12l52.33,0,24.6,3c1,18.06,18.26,22.28,28.48,31.85,29.65,27.79,60.75,54.05,91.63,80.5,37.07,31.74,74.62,62.91,111.71,94.61,20.82,17.8,40.94,36.4,61.74,54.21,23.92,20.47,48.39,40.29,72.33,60.74,13.16,11.25,25.51,23.44,38.56,34.81,27.85,24.25,56.08,48.06,83.84,72.4,22.8,20,45.48,40.16,67.57,60.94,8.74,8.23,16.25,11.12,26.83,3.55,11.55-8.26,21-6.62,31.58,4.64,18.57,19.67,39.25,37.38,59.45,55.45,18.51,16.56,37.42,32.68,56.42,48.68,9.67,8.15,19.42,16.36,30,23.16s20,13.88,21.33,27.69c.22,2.24,2.13,5.76,3.87,6.19,26.06,6.38,39,30.62,60,43.95,15.82,10,30,22.8,44.54,34.7,4.29,3.5,9,7.61,11.1,12.48,6.63,15.45,19.4,20,34.31,21.7Z"/><path class="cls-10" d="M0,387.67V289.21c12,3.51,25.44,4.65,35.57,11.06,15.58,9.87,28.88,23.32,43.1,35.32,12.77,10.77,25.7,21.39,38.06,32.62,3.92,3.55,9,9,8.78,13.33-1,15.53,7.77,16.49,19.14,15.28l52.24.16c3.33,3.28,6.35,7,10.09,9.72,4.06,3,10.15,4,13,7.67,13.26,17.3,28,32.08,47.17,43.54,30,17.94,49.39,49.1,80,67.37,8.11,4.84,10.79,18.77,16,28.52q0,7.69,0,15.38c-6,4.77-13.83,8.38-17.56,14.51-10.44,17.17-19.17,35.38-28.57,53.18l-6.17,3.1c-7.81-7-15.48-14.07-23.46-20.83-22.06-18.7-44.45-37-66.33-55.92-26.43-22.83-52.51-46.06-78.64-69.23-9.78-8.67-19-18-28.93-26.45C92,449.42,70,432,48.91,413.54c-4.43-3.87-6-11-9-16.57l33-.79-.06-8.51Z"/><path class="cls-4" d="M0,1070.69V867.63c15.31,3,31.38,4.06,45.8,9.48,40.55,15.23,80.39,32.35,120.58,48.55,32,12.88,64.06,25.45,96,38.36,2.14.86,3.59,3.44,5.36,5.22L212.34,1070.7Z"/><path class="cls-11" d="M40,397c2.92,5.61,4.53,12.7,9,16.57C70,432,92,449.42,113.38,467.54c10,8.44,19.15,17.78,28.93,26.45,26.13,23.17,52.21,46.4,78.64,69.23,21.88,18.91,44.27,37.22,66.33,55.92,8,6.76,15.65,13.87,23.46,20.83-1.18,3.31-1.53,7.35-3.68,9.82-9.73,11.19-9.79,22.17-2,34.62,7.35,11.8,12.58,25,20.19,36.57s16.93,21.93,25.51,32.83c5.15,11.81,9.5,24,15.6,35.34,17,31.49,34.67,62.58,52.08,93.83-15.74-12.16-33.39-22.58-46.6-37.05-10.28-11.28-17-18.67-30.17-6l-6.16-3.23-12.31-24.53q-10.7-18.55-21.41-37.11t-21.36-36.86l-15.31-24.47-33.9-61.92q-1.34-1.69-2.65-3.41-4.54-7.86-9.11-15.72l-10.23-17.48c-5.33-1-10.66-2.71-16-2.79-21.32-.35-42.65-.18-64-.2,5.85-12.15-.36-17.84-10.48-24.09-15.11-9.33-29.27-20.38-43-31.68C59.94,543.49,45,529.5,29.84,515.89c-1.83-1.64-3.95-3.48-4.72-5.66-4.28-12.1-13-16.16-25.12-14.88V396.9Z"/><path class="cls-12" d="M1701.4,1283c-3.67-22.86-24.4-25.61-40.32-33.08-37.33-17.53-75.09-34.14-112.93-50.53-19.65-8.51-39.9-15.61-59.74-23.7-6.8-2.78-13-7.14-19.77-9.9-15.49-6.28-31.41-11.53-46.77-18.09-18.44-7.88-36.46-16.72-54.7-25.05-6.77-3.09-13.58-6.15-20.54-8.78-6.08-2.3-12.44-3.85-18.59-6-1.88-.65-3.32-2.72-5.2-3.18-17.4-4.27-34.86-8.34-52.3-12.46q14-27.65,28-55.27l21.31-30.9c4.71,25.94,30.92,24.92,46.85,36.63,12.4,9.12,27.29,14.9,41.23,21.84,5,2.48,10.37,4.15,15.67,5.92,21.06,7.06,45.41,6.66,59.62,29,2.92,4.56,11.37,6.34,17.64,7.9,31.53,7.84,59.8,22.09,87.43,39.16,30.17,18.64,61.27,36.89,94.14,49.76,33.37,13.06,65.34,27.24,93.79,49,2,1.51,4.46,3.41,6.68,3.36,18.85-.41,34.26,7.44,48.18,19.21q-1.77,7.59-3.55,15.16Z"/><path class="cls-13" d="M144.65,396.82c-11.37,1.21-20.13.25-19.14-15.28.27-4.29-4.86-9.78-8.78-13.33C104.37,357,91.44,346.36,78.67,335.59c-14.22-12-27.52-25.45-43.1-35.32C25.44,293.86,12,292.72,0,289.21V270.75l6.15-3H15.4c18.39,1,36.78,2.53,55.18,2.79,10.3.14,20.63-1.84,31-2.86l150.75,0c-14.08,1-28.24,1.47-42.2,3.34-5.2.7-10,4.72-14.91,7.23,3.31,5.34,5.64,11.75,10.1,15.82,12.8,11.64,26.7,22.07,39.74,33.46,15.07,13.15,30,26.51,44.36,40.41,5.9,5.71,10.21,13.07,15.25,19.68l-20.8,1.61c0,2.55.05,5.1.07,7.66h42.25c1,2.29,1.36,5.35,3.08,6.75,14.26,11.58,36.19,13.26,43.46,34.13.66,1.91,5.81,1.85,8.14,3.65,5.55,4.31,13.22,8.22,15.42,14,4.82,12.71,6.77,26.5,9.89,39.85-15.22,7.23-24.07,19.16-29.11,35.3-2.6,8.36-9.18,15.48-14,23.16-5.17-9.75-7.85-23.68-16-28.52-30.58-18.27-49.94-49.43-80-67.37C248,446.45,233.22,431.67,220,414.37c-2.83-3.69-8.92-4.7-13-7.67-3.74-2.74-6.76-6.44-10.09-9.72l57.57-.89.11-5.14c-2.06-1-4.13-2.95-6.2-3-29.7-.16-59.41-.47-89.09.37C154.33,388.5,149.52,393.87,144.65,396.82Z"/><path class="cls-14" d="M895.31,1283H753.79c-18.95-38-57.63-56.31-85.77-85.21-23.36-24-52.11-42.73-75.56-66.65-11.78-12-23.88-16-38.75-17.43l30.84-58.38,3.1-3.09,49.21.11c8.43,7,19.5,12.38,24.84,21.23,21.31,35.32,60.76,50.15,87.16,80,19.27,21.78,44.25,38.52,66.77,57.41,20.89,17.54,42.09,34.7,62.69,52.57C884.77,1269.1,889.69,1276.44,895.31,1283Z"/><path class="cls-4" d="M15.4,267.76H6.15L0,267.68V126.15c14.2-1.37,26.18,3.46,39.16,9.54,24.4,11.41,50.91,18.21,75.89,28.48,44.72,18.39,88.76,38.43,133.53,56.67,13,5.28,27.45,6.81,41.24,10.06q-3.48,9.1-6.94,18.21-6.11,9.15-12.2,18.32l-12.23.28h-6.17l-150.75,0Z"/><path class="cls-15" d="M0,1070.69H212.34c3.78,2,7.59,5.84,11.34,5.78,22.83-.39,40.91,9.16,56.4,25-11.61,20.93-22.93,42-35.14,62.6-1.77,3-7.83,4.79-11.92,4.81q-104.51.44-209-.09c-4.6,0-9.35-4.24-13.72-7-3.66-2.29-6.86-5.3-10.27-8Z"/><path class="cls-11" d="M895.31,1283c-5.62-6.53-10.54-13.87-17-19.45-20.6-17.87-41.8-35-62.69-52.57-22.52-18.89-47.5-35.63-66.77-57.41-26.4-29.84-65.85-44.67-87.16-80-5.34-8.85-16.41-14.24-24.84-21.23l55.38-.13,73.85.07c1.39,2.62,2.13,6.09,4.27,7.74,21.32,16.42,43.79,31.46,64.12,49,26.28,22.68,50.88,47.32,76.26,71.06,2.87,2.68,6.07,5,9.12,7.52-9.65,16.58-19.81,32.9-28.55,50-2,4-.34,10.85,1.61,15.58,4.22,10.23,9.72,19.93,14.7,29.85Z"/><path class="cls-16" d="M1227.59,1283H1086.07c-5.2-5.15-9.66-11.53-15.76-15.19-12.19-7.31-25.46-12.77-38-19.62-36.6-20.07-73-40.45-109.52-60.7q17.13-32.2,34.24-64.41c15.51,9.46,30.86,19.18,46.56,28.31,25.54,14.87,51.44,29.12,76.93,44.08,18.45,10.82,36.06,23.12,54.8,33.39,22.81,12.5,46.69,23,69.51,35.51C1213.32,1269,1220.07,1276.67,1227.59,1283Z"/><path class="cls-17" d="M553.71,1113.68c14.87,1.45,27,5.42,38.75,17.43,23.45,23.92,52.2,42.66,75.56,66.65,28.14,28.9,66.82,47.21,85.77,85.21H627.64c-1.93-3.46-3.26-7.5-5.89-10.31-18.73-20-36.45-41.25-57.22-58.89-8.86-7.53-19.3-12.75-25.91-23.24-1.54-2.46-8.38-2.24-12.74-2.1-6,.19-12,1.48-18.06,2.3,3.08-5.85,5.88-11.86,9.3-17.5C529.2,1153.31,541.5,1133.52,553.71,1113.68Z"/><path class="cls-18" d="M1926,1046.07v175.37c-9.7-6.28-20-11.81-29-19-15.88-12.82-30.79-26.85-46.4-40-6.38-5.37-13.56-9.81-20.37-14.67-1.15-2-2.29-4-3.44-5.93,7.63-11.19-3-12-8.83-15.5h.08q-4.69-9.21-9.4-18.42l.15,0-3.27-3.16-34.08-58.13Z"/><path class="cls-19" d="M1926,129.23v67.68c-5.75-1.85-11.78-3.1-17.2-5.66q-44.17-20.92-88.07-42.46c-14.08-6.92-27.08-17.15-41.85-21.32-25.42-7.17-45.94-22.41-68.06-35.17q6.26-13.64,12.53-27.27l21-28.39c3.74,3.21,7,7.31,11.3,9.47q60.93,30.89,122.19,61.13C1893.69,115,1910,121.92,1926,129.23Z"/><path class="cls-17" d="M289.83,230.9c-13.8-3.25-28.29-4.78-41.25-10.06-44.77-18.24-88.81-38.28-133.53-56.67-25-10.27-51.49-17.07-75.89-28.48-13-6.08-25-10.91-39.16-9.54V73.85c9.27,4,18.47,8.1,27.82,11.86Q79.41,106.47,131.08,127c52.48,20.78,105.12,41.18,157.42,62.42,6.34,2.57,11,9.29,16.42,14.08Z"/><path class="cls-11" d="M0,40V3.08L3.08,0H9.23c-.42,9.45,4.84,11.81,13.41,12.57a79.4,79.4,0,0,1,23.29,6c27.71,11.67,54.91,24.59,82.77,35.89,39.72,16.09,79.93,30.95,119.76,46.76,21.26,8.44,42.19,17.7,63.2,26.74,10.09,4.34,20,9,30,13.53L326,175.18c-1,.09-2,.14-3,.15-10.67-5.78-20.9-12.72-32.11-17.13-30.64-12.06-62.07-22.15-92.5-34.67C132.05,96.24,66.11,67.91,0,40Z"/><path class="cls-20" d="M1926,372.28c-25.58.07-51.18.52-76.74-.1-5.22-.13-12.8-2.82-15.12-6.77-27.32-46.66-53.85-93.79-80.59-140.8,5.33,1.16,11,1.58,15.93,3.61,13.09,5.34,26.13,10.94,38.78,17.24,22.66,11.3,44.79,23.66,67.58,34.67,16.35,7.9,33.41,14.31,50.16,21.39Z"/><path class="cls-10" d="M341.7,141.54c-10-4.52-19.95-9.19-30-13.53-21-9-41.94-18.3-63.2-26.74-39.83-15.81-80-30.67-119.76-46.76-27.86-11.3-55.06-24.22-82.77-35.89a79.4,79.4,0,0,0-23.29-6C14.07,11.82,8.81,9.46,9.23,0H123.07c4,4.57,7.15,11.29,12.2,13.39q74.22,30.83,149,60.24c17.92,7.09,36.87,11.8,54.19,20C346.12,97.31,350.9,107,357,114Z"/><path class="cls-14" d="M267.75,969.24c-1.77-1.78-3.22-4.36-5.36-5.22-31.95-12.91-64-25.48-96-38.36-40.19-16.2-80-33.32-120.58-48.55-14.42-5.42-30.49-6.45-45.8-9.48V824.55c6.45,1.17,13.35,1.24,19.27,3.68C77.6,852.28,135.67,877,194,901c31.48,12.95,63.35,24.94,95,37.36a28.4,28.4,0,0,1,0,3.06Z"/><path class="cls-20" d="M922.84,1187.46c36.5,20.25,72.92,40.63,109.52,60.7,12.49,6.85,25.76,12.31,38,19.62,6.1,3.66,10.56,10,15.76,15.19H907.62c-5-9.92-10.48-19.62-14.7-29.85-1.95-4.73-3.64-11.63-1.61-15.58,8.74-17,18.9-33.37,28.55-50Z"/><path class="cls-14" d="M0,40c66.11,27.91,132.05,56.24,198.42,83.53,30.43,12.52,61.86,22.61,92.5,34.67,11.21,4.41,21.44,11.35,32.11,17.13q-3,6.19-6,12.39l-3,3.38-9.11,12.4c-5.43-4.8-10.08-11.52-16.42-14.09C236.2,168.17,183.56,147.77,131.08,127Q79.38,106.53,27.82,85.71C18.47,82,9.27,77.81,0,73.85Z"/><path class="cls-4" d="M507.82,1190.73c6-.82,12-2.11,18.06-2.3,4.36-.14,11.2-.36,12.74,2.1,6.61,10.49,17,15.71,25.91,23.24,20.77,17.64,38.49,38.89,57.22,58.89,2.63,2.81,4,6.85,5.89,10.31H455.35Z"/><path class="cls-21" d="M1227.59,1283c-7.52-6.3-14.27-14-22.71-18.63-22.82-12.48-46.7-23-69.51-35.51-18.74-10.27-36.35-22.57-54.8-33.39-25.49-15-51.39-29.21-76.93-44.08-15.7-9.13-31-18.85-46.56-28.31l2.94-12.19,18.32-18.77c4.46,5.12,8,11.71,13.57,15.07,18.18,11,37.25,20.59,55.66,31.28,31,18,61.8,36.59,92.77,54.77,19.24,11.3,39.25,21.4,57.82,33.7,20.33,13.45,33.71,33,41.74,56.06Z"/><path class="cls-10" d="M0,796.86V766.1c9.43,1.58,19.44,1.66,28.2,5q66.35,25.41,132.12,52.29c29.74,12.08,58.81,25.84,88.8,37.22,23.12,8.77,47.19,15,70.84,22.38q-1.6,7.61-3.22,15.21l-15.27,15.54c-24.22-10.36-48.35-21-72.68-31-34.29-14.2-68.77-27.89-103.08-42C96.14,828.52,67,815.34,37.06,804,25.47,799.62,12.4,799.13,0,796.86Z"/><path class="cls-12" d="M1239.9,1283c-8-23.07-21.41-42.61-41.74-56.06-18.57-12.3-38.58-22.4-57.82-33.7-31-18.18-61.72-36.73-92.77-54.77-18.41-10.69-37.48-20.25-55.66-31.28-5.54-3.36-9.11-10-13.57-15.06q6.18-12.21,12.38-24.4c9.26,9.19,17.13,20.76,28,27.14,35.92,21,73.33,39.49,109.41,60.25,26.43,15.2,51.72,32.38,77.35,49,2.27,1.47,2.84,5.37,5,7.29,7.59,6.84,14.71,14.77,23.47,19.64,21.26,11.82,43.73,21.48,64.86,33.5,6.41,3.65,10,12.2,14.92,18.5Z"/><path class="cls-22" d="M335.47,836.69l6.16,3.23-12.54,27.66c-29.53-10.67-59.32-20.71-88.53-32.19-32-12.56-63.43-26.47-95.13-39.75-25.29-10.6-50.32-21.88-76-31.49C46.67,755.62,23.18,749,0,741.48V713.79c14.52,4.16,29.18,7.87,43.51,12.59,17.84,5.88,35.68,11.94,53,19.12,19.73,8.18,38.68,18.22,58.38,26.49Q240.73,808,327,842.92C328.73,843.6,332.61,838.89,335.47,836.69Z"/><path class="cls-11" d="M0,796.86c12.4,2.27,25.47,2.76,37.06,7.15,29.9,11.33,59.08,24.51,88.65,36.69,34.31,14.14,68.79,27.83,103.08,42,24.33,10.07,48.46,20.66,72.68,31l-12.41,24.58c-31.69-12.42-63.56-24.41-95-37.36C135.67,877,77.6,852.28,19.27,828.23c-5.92-2.44-12.82-2.51-19.27-3.68Z"/><path class="cls-23" d="M1926,3.08v92.3c-35-16.89-69.76-34.38-105.14-50.46-21.91-10-44.79-17.77-67.23-26.55l6.18-15.18Z"/><path class="cls-24" d="M301.75,775.05q10.71,18.56,21.41,37.11c-14.47-2.58-29.71-3.09-43.26-8.13-34.41-12.79-68-27.65-102-41.61-40.88-16.8-81.6-34-122.79-50-17.63-6.86-34.23-19.32-55.09-14V667.64c5.48,1,11.3,1.1,16.38,3.08q50.34,19.63,100.4,40c21.09,8.57,41.86,17.93,63,26.44,33.2,13.36,66.55,26.35,99.87,39.4C287.15,779.5,295,783.8,301.75,775.05Z"/><path class="cls-14" d="M0,495.35c12.07-1.28,20.84,2.78,25.12,14.88.77,2.18,2.89,4,4.72,5.66,15.2,13.61,30.1,27.6,45.86,40.54,13.76,11.3,27.92,22.35,43,31.68,10.12,6.25,16.33,11.94,10.48,24.1L0,612.26Z"/><path class="cls-23" d="M301.75,775.05c-6.8,8.75-14.6,4.45-22.12,1.51-33.32-13-66.67-26-99.87-39.4-21.12-8.51-41.89-17.87-63-26.44q-50.06-20.34-100.4-40c-5.08-2-10.9-2.1-16.38-3.08V636.88c5,.94,10.23,1.1,14.81,3,31.59,12.85,63,26.27,94.55,39.1,51.46,20.9,103,41.69,154.72,61.85,4.43,1.72,10.83-1.62,16.32-2.62Z"/><path class="cls-25" d="M1734.19,191.11,1707,147.81c-1-3-1.93-5.93-2.9-8.89,8-6.23,15.72-8.89,24.28-.28,3.05,3.07,8.07,4.15,12.17,6.18,40.59,20,81.07,40.19,121.79,59.89,21,10.16,42.44,19.44,63.68,29.12v33.85c-18.46-8-37-15.88-55.35-24.15-33.8-15.23-67.21-31.35-101.37-45.71C1758.54,193.31,1745.94,193.22,1734.19,191.11Z"/><path class="cls-26" d="M1926,233.83c-21.24-9.68-42.68-19-63.68-29.12-40.72-19.7-81.2-39.91-121.79-59.89-4.1-2-9.12-3.11-12.17-6.18-8.56-8.61-16.27-5.95-24.28.28l-11.52-18.85,12.12-21.3,6.14-6.47c22.12,12.76,42.64,28,68.06,35.17,14.77,4.17,27.77,14.4,41.85,21.32q43.86,21.59,88.07,42.46c5.42,2.56,11.45,3.81,17.2,5.66Z"/><path class="cls-13" d="M357,114c-6.08-7-10.86-16.64-18.51-20.28-17.32-8.23-36.27-12.94-54.19-20q-74.73-29.56-149-60.24c-5.05-2.1-8.18-8.82-12.2-13.39h83.07c2.89,3.54,5.07,8.7,8.8,10.35,23.61,10.49,47.49,20.35,71.42,30.1,17.9,7.29,35.66,15.26,54.14,20.73,14.14,4.18,27.25,8.24,35,21.88l-9.42,21.48Z"/><path class="cls-27" d="M1830.27,1147.72c6.82,4.86,14,9.3,20.38,14.67,15.61,13.17,30.52,27.2,46.4,40,8.94,7.22,19.25,12.75,29,19V1283h-98.45q1.77-7.58,3.55-15.16c10.35-17.36,20.94-34.59,30.83-52.21,1.6-2.86,1.5-8.34-.23-11.13-8.74-14.14-18.27-27.79-27.53-41.61Z"/><path class="cls-13" d="M0,741.48c23.18,7.49,46.67,14.14,69.45,22.67,25.66,9.61,50.69,20.89,76,31.49,31.7,13.28,63.15,27.19,95.13,39.75,29.21,11.48,59,21.52,88.53,32.19L320,883c-23.65-7.37-47.72-13.61-70.84-22.38-30-11.38-59.06-25.14-88.8-37.22Q94.49,796.67,28.2,771.11c-8.76-3.35-18.77-3.43-28.2-5Z"/><path class="cls-18" d="M209.19,615.19l10.23,17.48c-.34.41-.69.8-1.06,1.19-7.17-11.25-17.73-13.1-30.26-12.63-21.48.82-43,.18-64.51.31-4.73,0-9.45.74-14.17,1.14-.24,1.51-.47,3-.7,4.53,41.72,15.59,80.77,38.34,127.81,48.5-2.74-10.73-4.34-17-5.95-23.33l.6-.58,33.9,61.92c-18.44-5.63-37.25-10.29-55.23-17.13-22.71-8.63-44.58-19.41-67.1-28.56C114,656.34,83.46,648,56.48,633.15c-17.8-9.8-34.51-12.56-53.32-11.69l-3.16-3v-3.08Z"/><path class="cls-28" d="M0,698.41c20.86-5.34,37.46,7.12,55.09,14,41.19,16,81.91,33.23,122.79,50,34,14,67.61,28.82,102,41.61,13.55,5,28.79,5.55,43.26,8.13l12.31,24.53c-2.86,2.2-6.74,6.91-8.44,6.23Q240.75,808,154.9,772c-19.7-8.27-38.65-18.31-58.38-26.49-17.33-7.18-35.17-13.24-53-19.12C29.18,721.66,14.52,718,0,713.79Z"/><path class="cls-27" d="M3.16,621.46c18.81-.87,35.52,1.89,53.32,11.69C83.46,648,114,656.34,142.75,668c22.52,9.15,44.39,19.93,67.1,28.56,18,6.84,36.79,11.5,55.23,17.13l15.31,24.47c-5.48,1-11.88,4.33-16.31,2.61C212.33,720.64,160.82,699.85,109.36,679c-31.6-12.83-63-26.25-94.55-39.1-4.58-1.87-9.86-2-14.81-3V624.57Z"/><path class="cls-24" d="M1753.62,18.37c22.45,8.78,45.33,16.6,67.24,26.55C1856.24,61,1891,78.49,1926,95.38v33.85c-16-7.31-32.31-14.21-48.12-22q-61.29-30.18-122.19-61.13c-4.27-2.16-7.56-6.26-11.3-9.46Z"/><path class="cls-29" d="M1734.19,191.11c11.75,2.11,24.35,2.2,35.09,6.71,34.16,14.36,67.57,30.48,101.37,45.71,18.35,8.27,36.89,16.11,55.35,24.15v33.84c-16.75-7.08-33.81-13.49-50.16-21.39-22.79-11-44.92-23.37-67.58-34.67-12.65-6.3-25.69-11.9-38.78-17.24-5-2-10.6-2.45-15.93-3.61L1738,197.76l-2.5-3.83Z"/><path class="cls-22" d="M375.49,83.07c-7.74-13.64-20.85-17.7-35-21.88C322,55.72,304.26,47.75,286.36,40.46c-23.93-9.75-47.81-19.61-71.42-30.1C211.21,8.71,209,3.55,206.14,0h89.22c2.28,4.18,3.54,10.5,7,12.17,15,7.21,30.56,13.48,46.2,19.29,17.18,6.39,35.54,10.87,39.06,33.15Q381.56,73.85,375.49,83.07Z"/><path class="cls-28" d="M387.65,64.62c-3.52-22.28-21.88-26.76-39.06-33.15-15.64-5.81-31.17-12.08-46.2-19.29-3.49-1.67-4.75-8-7-12.17h120l3.11,3.14q-9.25,21.5-18.5,43Z"/><path class="cls-10" d="M507.82,1190.73,455.35,1283h-9.23q23.06-42.24,46.08-84.51c2.41-4.44,4.26-9.18,6.37-13.78,10.46-17.31,21.34-34.39,31.31-52,14.52-25.6,28.39-51.57,42.54-77.39l6-3.26,6.13,3.24-30.84,58.38c-12.21,19.84-24.51,39.63-36.59,59.55C513.7,1178.87,510.9,1184.88,507.82,1190.73Z"/><path class="cls-7" d="M1501.61,2.83,987.53,3c0-1,.06-2,.08-3h513.81C1501.47,1,1501.53,1.89,1501.61,2.83Z"/><path class="cls-9" d="M1926,1046.07l-154.51.47-2.22-.59a24.45,24.45,0,0,0-.29-2.83c5.84-1.07,11.67-3,17.52-3.07,46.5-.25,93-.14,139.5-.13Z"/><path class="cls-27" d="M987.61,0c0,1-.05,2-.08,3l-21.41.21-52.33,0H870.72L686.06,3c0-1,0-2,0-3Z"/><path class="cls-23" d="M686.1,0c0,1,0,2,0,3l-83,.15-58.51,0-123,0c0-1,0-2-.05-3.06Z"/><path class="cls-27" d="M1501.61,2.83c-.08-.94-.14-1.88-.19-2.82h249.21c-.05,1-.11,2.06-.16,3.09l-107.57.11-43.21,0-95.24-.06C1503.5,3.1,1502.55,3,1501.61,2.83Z"/><path class="cls-13" d="M40,397,0,396.9v-9.23H72.92l.06,8.51Z"/><path class="cls-29" d="M209.19,615.19,0,615.34v-3.08l129.21,0c21.32,0,42.65-.16,64,.19C198.53,612.48,203.86,614.21,209.19,615.19Z"/><path class="cls-3" d="M1750.47,3.1l.16-3.09c54.87,0,109.73-.06,164.6.13,3.59,0,7.18,1.92,10.77,2.94l-166.19.11Z"/><path class="cls-10" d="M0,267.68l6.15.09-6.15,3Z"/><path class="cls-24" d="M3.16,621.46,0,624.57v-6.15Z"/><path class="cls-19" d="M421.5,0c.05,1,.06,2,.05,3.06l-3.09.08L415.35,0Z"/><path class="cls-25" d="M3.08,0,0,3.08Z"/><path class="cls-9" d="M1692.56,120.07l11.52,18.85c1,3,1.93,5.92,2.9,8.89-12.27-.05-24.73-1.48-36.78.14-29.79,4-52.94-9-78.06-22.9-41.19-22.81-54.66-63.73-75.36-100.41,36.87,21.1,73.5,42.66,110.71,63.14C1648.69,99.45,1670.84,109.36,1692.56,120.07Z"/><path class="cls-6" d="M1692.56,120.07c-21.72-10.71-43.87-20.62-65.07-32.29-37.21-20.48-73.84-42-110.71-63.14L1504.45,3.17l95.24.06-24,5.4c2.11,3.07,3,5.75,4.88,6.91C1611.59,35,1643,53.81,1673.81,73.68c11.08,7.15,20.62,16.66,30.87,25.09Z"/><path class="cls-25" d="M1735.51,193.93l2.5,3.83Z"/><path class="cls-28" d="M1298.57,1036.93q-14,27.63-28,55.27l-9.15,3c-7.17-12.24-14.61-24.33-21.43-36.76-4.88-8.89-11-13.19-21.92-12.71-21.39.93-42.84.27-64.27.27l-3.17-.1c2.89-3.4,6.76-6.41,8.37-10.34,1.34-3.26,1.62-9.15-.38-11.22-11.08-11.46-22.35-22.94-34.79-32.85-19.08-15.21-39.42-28.83-58.69-43.81-7.72-6-14-13.84-21-20.77-5.19-5.14-12.47-9.25-15.32-15.44-5.28-11.48-12.74-17.72-25.17-19.35-16-2.09-23.57-13.54-28.33-27.56l21.55.09c22.81,1,45.63,2.88,68.43,2.65,17.78-.17,31.28,1.85,44.48,17.82,16.62,20.09,39.89,34.57,59.64,52.21,26.29,23.47,50.77,49.14,78.37,70.9C1262.73,1020,1276.73,1036.25,1298.57,1036.93Z"/><path class="cls-22" d="M975.31,864.58c4.76,14,12.32,25.47,28.33,27.56,12.43,1.63,19.89,7.87,25.17,19.35,2.85,6.19,10.13,10.3,15.32,15.44,7,6.93,13.26,14.78,21,20.77,19.27,15,39.61,28.6,58.69,43.81,12.44,9.91,23.71,21.39,34.79,32.85,2,2.07,1.72,8,.38,11.22-1.61,3.93-5.48,6.94-8.37,10.34H1015.28c-1.51-19.78-12.74-32.09-30.73-33.71,3.93-8.32,8.94-16.32,11.44-25.05,1.78-6.18,3-16.06-.4-19.61-20.28-21.17-41.62-41.38-63.45-61-5.62-5-15-5.68-21.41-10.1C893.85,884.88,879.84,868,856.21,870c-2.15.18-4.63-3.43-7-5.28Z"/><path class="cls-13" d="M984.55,1012.2c18,1.62,29.22,13.93,30.73,33.71-15-.43-23,7-24.56,21.79q-6.19,12.19-12.38,24.4L960,1110.85c-3.76-18.17-20-24.07-32.89-33.14-12.45-8.77-25.29-17-38-25.46l30.82-3.09h15.14C958.7,1049.14,976.87,1035.55,984.55,1012.2Z"/><path class="cls-27" d="M1153.77,1046c21.43,0,42.88.66,64.27-.27,10.89-.48,17,3.82,21.92,12.71,6.82,12.43,14.26,24.52,21.43,36.76-3.21,12.77-9.13,16.09-20.33,9.62q-40.36-23.31-79.94-47.93C1157.72,1054.81,1156.17,1049.73,1153.77,1046Z"/><path class="cls-17" d="M572.42,1055.32c-14.15,25.82-28,51.79-42.54,77.39-10,17.58-20.85,34.66-31.31,52-9.47-16.46-25.53-24.93-40.57-35.15-10.26-7-18.6-17.1-26.77-26.7-16.46-19.3-36.87-33-59.09-44.57-2.24-1.16-5.94-2.58-6.11-4.19-2.88-25.89-30.81-24.76-43.08-40.35q13.92-27.66,27.85-55.32c14.23-11.19.05-20-3.38-28.7-7-17.57-16.24-34.21-24.56-51.24,11.89-12.51,19.71-2.3,28.27,4.91,25.56,21.56,51.47,42.72,76.76,64.58,15.62,13.51,30.26,28.15,45.55,42,11.21,10.17,22.78,20,34.19,29.91,6.94,10.37,16.54,13.21,28.85,12.68C548.4,1052.06,560.44,1054.3,572.42,1055.32Z"/><path class="cls-20" d="M350.8,978.4q-13.94,27.66-27.85,55.32-13.36,21.06-26.71,42.13-8.1,12.8-16.17,25.58c-15.48-15.79-33.56-25.34-56.39-25-3.75.06-7.56-3.75-11.34-5.78l55.41-101.46,21.33-27.85c6.8,2.9,14.13,5,20.3,8.87C323.48,959.17,337,969,350.8,978.4Z"/><path class="cls-8" d="M603.09,3.14l83-.15,184.66.15C880.75,14.28,890,26.26,901,36.37c22,20.23,44.75,39.56,67.41,59,17.73,15.23,35.94,29.9,53.64,45.16,24.57,21.19,48.57,43,73.33,64,38,32.15,76.91,63.23,114.53,95.81,30.27,26.21,58.87,54.33,88.83,80.9,19,16.9,39.46,32.26,58.89,48.75,29.55,25.07,58.76,50.54,88.15,75.81,20.85,17.92,41.54,36,62.69,53.59,13.62,11.3,15.52,19.59,6.06,34.87-3.14,5.08-6.63,10-10,14.92-24.76-22.65-49.22-45.63-74.36-67.85-34.59-30.58-69.67-60.6-104.57-90.82-11.47-9.93-22.87-19.95-34.64-29.51-14.21-11.53-29.26-22.06-43.07-34-22.31-19.33-43.75-39.64-65.84-59.21-10.66-9.44-22.27-17.8-32.92-27.24-21.71-19.24-42.84-39.14-64.61-58.31-23.72-20.88-48-41.09-71.84-61.89-24.06-21-47.77-42.47-71.68-63.68q-49.75-44.13-99.6-88.15c-6.82-6-15-11.87-22.09-1.6-7.47,10.84-13,23-19.38,34.62L781.48,92.32q-4.61,6.15-9.22,12.31c-17,2.26-27.47-9-38.21-18.91-11.79-10.9-22.16-23.36-34.21-33.94C684,37.86,667.34,24.87,650.61,12c-4-3.07-9.56-4.9-14.64-5.67C625.1,4.72,614.06,4.15,603.09,3.14Z"/><path class="cls-18" d="M799.93,61.54c6.38-11.6,11.91-23.78,19.38-34.62,7.09-10.27,15.27-4.4,22.09,1.6q49.89,44,99.6,88.15c23.91,21.21,47.62,42.64,71.68,63.68,23.79,20.8,48.12,41,71.84,61.89,21.77,19.17,42.9,39.07,64.61,58.31,10.65,9.44,22.26,17.8,32.92,27.24,22.09,19.57,43.53,39.88,65.84,59.21,13.81,12,28.86,22.49,43.07,34,11.77,9.56,23.17,19.58,34.64,29.51,34.9,30.22,70,60.24,104.57,90.82,25.14,22.22,49.6,45.2,74.36,67.85l-6.21,21.51L1486,643c-8.62-9.08-16.58-18.91-26-27.1-25.62-22.34-52-43.82-77.78-66-16.56-14.21-32.36-29.29-49-43.39-24.76-21-50.53-40.74-74.7-62.34-10.27-9.19-20.2-15.24-34.06-13.5,3.75-6.9,1.09-9.55-6.1-9.19-18.37-19.44-35.88-39.8-55.36-58.05-18.43-17.27-39.5-31.7-58.39-48.52-31.86-28.35-62.29-58.34-94.5-86.28-29.06-25.21-60.24-48-89.51-73-30.91-26.41-60.24-54.68-91.26-81C821.51,68.07,809.86,65.82,799.93,61.54Z"/><path class="cls-18" d="M1449,713.78c23.51,20.06,46.88,40.29,70.57,60.13,30,25.09,60.65,49.32,90,75,12.42,10.87,22,24.89,33.57,36.85,4,4.11,9.91,6.29,14.93,9.37l27,16.62L1664.55,922l-154.52.72c-1-.11-2-.24-3-.37-20.46-36.33-40.64-72.82-61.49-108.93-9.37-16.21-20.09-31.66-30.19-47.45l.06-3.21c3.5-3.94,7.55-7.53,10.41-11.89C1433.83,738.69,1441.31,726.17,1449,713.78Z"/><path class="cls-16" d="M1510,922.74l154.52-.72c28.33-4.93,43.08,9.26,54.42,34,12.76,27.81,29.69,53.69,44.8,80.42-5.26,1.14-10.49,3.14-15.77,3.27-18.62.44-37.25.24-55.88.28-26-.07-52.12-1.6-78,.18-26.25,1.81-44-5.68-56-30.75C1543.93,979.62,1526.22,951.55,1510,922.74Z"/><path class="cls-27" d="M1224.53,430.74c13.85-1.74,23.78,4.31,34,13.5,24.17,21.6,49.94,41.38,74.7,62.34,16.65,14.1,32.45,29.18,49,43.39,25.8,22.14,52.16,43.62,77.78,66,9.39,8.19,17.35,18,26,27.1q-10.82,20-21.61,40c-8.26-12.31-14.87-26.28-25.19-36.52-13.23-13.12-30-22.57-44.25-34.79-22-18.9-43.11-38.91-64.79-58.23-9.4-8.38-18.52-17.48-29.19-23.88-7.17-4.3-11.72-18.05-24.19-9.62Z"/><path class="cls-23" d="M1276.82,520c12.47-8.43,17,5.32,24.19,9.62,10.67,6.4,19.79,15.5,29.19,23.88,21.68,19.32,42.75,39.33,64.79,58.23,14.24,12.22,31,21.67,44.25,34.79,10.32,10.24,16.93,24.21,25.19,36.52l-15.22,24.66c-31.44-25.74-62.73-51.66-94.48-77-4.32-3.45-10.89-4.12-16.41-6.07Z"/><path class="cls-24" d="M1338.32,624.56c5.52,2,12.09,2.62,16.41,6.07,31.75,25.37,63,51.29,94.48,77-.07,2-.15,4.08-.22,6.12-7.68,12.39-15.16,24.91-23.14,37.11-2.86,4.36-6.91,8-10.41,11.89q-20-35.92-40-71.85Q1356.86,657.73,1338.32,624.56Z"/><path class="cls-3" d="M1692.12,1040c18.63,0,37.26.15,55.88-.29,5.28-.13,10.51-2.13,15.77-3.27l5.21,6.72a24.45,24.45,0,0,1,.29,2.83l-83.33,0Z"/><path class="cls-26" d="M316.91,636.87c9.4-17.8,18.13-36,28.57-53.18,3.73-6.13,11.59-9.74,17.56-14.51,5.23,2.66,11.35,4.36,15.52,8.17,11.92,10.9,22.59,23.18,34.69,33.85,6.32,5.57,15.46,7.93,21.83,13.46,16,13.91,30.82,29.24,46.81,43.18,27.53,24,55.3,47.77,83.57,70.9,15.62,12.78,32.48,24.06,48.74,36.06,8.33,6.15,12.72,1.15,16.54-5.67,17,29,34.24,57.79,50.84,87,2.16,3.79,3.12,10.51,1.19,13.93-6.19,11-14,21-21.18,31.45-14.32,6.24-23.75-1-33.25-10.83C613.24,875,597.47,860,581.49,845.29c-7.75-7.14-16.78-12.87-24.91-19.62-5.87-4.89-10.9-10.8-16.84-15.6-28.85-23.28-58.22-45.92-86.65-69.7-11.11-9.29-19.51-21.8-30.47-31.3-9.71-8.42-21.57-14.29-31.93-22-17.92-13.36-35.16-27.65-53.24-40.79C331.48,641.92,323.8,639.93,316.91,636.87Z"/><path class="cls-25" d="M316.91,636.87c6.89,3.06,14.57,5,20.54,9.39,18.08,13.14,35.32,27.43,53.24,40.79,10.36,7.73,22.22,13.6,31.93,22,11,9.5,19.36,22,30.47,31.3,28.43,23.78,57.8,46.42,86.65,69.7,5.94,4.8,11,10.71,16.84,15.6,8.13,6.75,17.16,12.48,24.91,19.62,16,14.73,31.75,29.73,46.85,45.36,9.5,9.83,18.93,17.07,33.25,10.83L636.71,947.7l-2.87,3.12-6,9.18c-7.79-.13-18,2.88-23-.92-22.49-17.16-43.59-36.14-65-54.66-31.5-27.2-62.68-54.77-94.32-81.8-27.16-23.21-55-45.66-82-69-5.42-4.68-8.61-7.21-12.82.2-8.58-10.9-17.94-21.27-25.51-32.83S312.37,696.21,305,684.41c-7.75-12.45-7.69-23.43,2-34.62,2.15-2.47,2.5-6.51,3.68-9.82Z"/><path class="cls-19" d="M630.74,769.13c-3.82,6.82-8.21,11.82-16.54,5.67-16.26-12-33.12-23.28-48.74-36.06-28.27-23.13-56-46.89-83.57-70.9-16-13.94-30.78-29.27-46.81-43.18-6.37-5.53-15.51-7.89-21.83-13.46-12.1-10.67-22.77-23-34.69-33.85-4.17-3.81-10.29-5.51-15.52-8.17q0-7.68,0-15.38c4.78-7.68,11.36-14.8,14-23.16,5-16.14,13.89-28.07,29.11-35.3,4.13,1.79,8.88,2.81,12.28,5.51,11.28,9,22.22,18.36,33,27.93,6,5.33,11.2,11.51,17.05,17,11,10.35,22.61,19.61,39.28,17.05,3.37,2.77,7.86,4.87,9.93,8.4C544.3,616.58,570.59,662.11,597,707.6Z"/><path class="cls-28" d="M144.65,396.82c4.87-2.95,9.68-8.32,14.63-8.46,29.68-.84,59.39-.53,89.09-.37,2.07,0,4.14,1.93,6.2,3l-.11,5.14-57.57.89Z"/><path class="cls-29" d="M350.72,753.81c4.21-7.41,7.4-4.88,12.82-.2,27,23.35,54.86,45.8,82,69,31.64,27,62.82,54.6,94.32,81.8,21.44,18.52,42.54,37.5,65,54.66,5,3.8,15.18.79,23,.92-.09,2-.17,4-.26,6l-49.2,86.07-6,3.26c-12-1-24-3.26-35.94-2.74-12.31.53-21.91-2.31-28.85-12.68-16-28.89-31.89-57.89-48.2-86.62-13.39-23.6-27.33-46.88-41-70.3-17.41-31.25-35.11-62.34-52.08-93.83C360.22,777.85,355.87,765.62,350.72,753.81Z"/><path class="cls-14" d="M418.4,883c13.7,23.42,27.64,46.7,41,70.3,16.31,28.73,32.16,57.73,48.2,86.62-11.41-10-23-19.74-34.19-29.91-15.29-13.89-29.93-28.53-45.55-42-25.29-21.86-51.2-43-76.76-64.58-8.56-7.21-16.38-17.42-28.27-4.91l-6.12-.25q1.61-7.61,3.22-15.21l9.13-15.42,12.54-27.66c13.15-12.66,19.89-5.27,30.17,6C385,860.4,402.66,870.82,418.4,883Z"/><path class="cls-18" d="M219.42,632.67q4.56,7.86,9.11,15.72l-.92.85-9.25-15.38C218.73,633.47,219.08,633.08,219.42,632.67Z"/><path class="cls-18" d="M228.53,648.39q1.32,1.71,2.65,3.41l-.6.58-3-3.14Z"/><path class="cls-21" d="M1834.17,1162.86c9.26,13.82,18.79,27.47,27.53,41.61,1.73,2.79,1.83,8.27.23,11.13-9.89,17.62-20.48,34.85-30.83,52.21-13.92-11.77-29.33-19.62-48.18-19.21-2.22.05-4.71-1.85-6.68-3.36-28.45-21.8-60.42-36-93.79-49-32.87-12.87-64-31.12-94.14-49.76-27.63-17.07-55.9-31.32-87.43-39.16-6.27-1.56-14.72-3.34-17.64-7.9-14.21-22.3-38.56-21.9-59.62-29-5.3-1.77-10.7-3.44-15.67-5.92-13.94-6.94-28.83-12.72-41.23-21.84-15.93-11.71-42.14-10.69-46.85-36.63l21.22-40c7-11.8,13.38-23.95,21.14-35.18,2.61-3.78,8.63-5.21,13.08-7.72,1,5.72.13,14.76,3.37,16.63,22.54,13,45.79,24.9,69.11,36.53,17.54,8.76,36.79,14.7,53,25.4,16.85,11.15,32.11,23.34,53.9,19.51,9.54,23.93,28.95,27.85,51.5,25.39,3.11,3.11,5.76,7,9.42,9.21,10.58,6.47,21.79,11.93,32.33,18.45,15.43,9.54,30.21,20.12,45.78,29.4,16.49,9.83,33.57,18.66,50.39,27.94,6,3.29,11.85,6.79,17.93,9.88,12.27,6.24,24.5,12.62,37.07,18.23a60.13,60.13,0,0,0,18.49,4.83C1823,1165,1828.63,1163.49,1834.17,1162.86Z"/><path class="cls-24" d="M1341.09,966l-21.22,40-21.31,30.9c-21.83-.68-35.83-16.89-50.78-28.68-27.6-21.76-52.08-47.43-78.37-70.9-19.75-17.64-43-32.12-59.64-52.21-13.2-16-26.7-18-44.48-17.82-22.8.23-45.62-1.67-68.43-2.66l82.95-.95c5.56.23,11.12.69,16.67.66,27.25-.16,54.5-.45,81.75-.69l55.37.13,67.73.59c-5.32,1.07-10.63,2.92-16,3.07-15.32.43-30.68-.08-46,.26-11.5.25-15.63,7-8.2,15.19,16.26,18,33.93,34.72,51.14,51.85,1.36,1.36,3.84,1.54,5.44,2.74,6.39,4.79,14.3,8.64,18.58,14.93C1315.21,965.52,1325.49,971.68,1341.09,966Z"/><path class="cls-22" d="M270.68,267.43q6.09-9.17,12.2-18.32c4.62,6.6-4.42,21.16,10.34,21.13,17.15,0,23.74,10.87,30.68,23.28a55.77,55.77,0,0,0,12.68,14.7c26.86,22.81,54.21,45,80.91,68,6.24,5.38,11.19,12.58,15.69,19.61,4.71,7.37,9.28,8.85,15.87,2.71,3-2.77,6.22-5.24,9.35-7.84,4,5,6.9,11.68,12,14.87,33.91,21.18,68.26,41.68,102.58,62.21,3,1.77,6.93,1.76,10.09,3.28A83.46,83.46,0,0,1,596,478.68c14.28,10.46,28.35,21.21,42.62,31.69,1,.76,3,.25,4.52.34,16,27.83,31.74,55.78,47.95,83.48,22.67,38.75,46,77.13,68.41,116,17.1,29.59,33.32,59.69,49.93,89.57-12.18-.18-24.57,4.43-35.6-6.52-12.15-12.06-26.37-22-39.26-33.38-20.7-18.24-40.47-37.59-61.75-55.11-14.65-12-31.27-21.71-46.84-32.67-1.87-1.31-3.84-4-3.91-6.12-.46-14-9.62-17.07-20.87-16.65-12.42.47-17.76-5.57-24.42-16-7.21-11.3-8.66-31-29.24-30.22-3.49-5-7.32-9.83-10.39-15.1-36.77-63.1-73.62-126.16-109.88-189.56-4.87-8.5-10.56-11-19.66-10.89-34.31.35-68.63.13-102.94.13-5-6.61-9.35-14-15.25-19.68C275,354.08,260.08,340.72,245,327.57c-13-11.39-26.94-21.82-39.74-33.46-4.46-4.07-6.79-10.48-10.1-15.82,5-2.51,9.71-6.53,14.91-7.23,14-1.87,28.12-2.32,42.2-3.34h6.17Z"/><path class="cls-22" d="M507.72,562.84c-16.67,2.56-28.27-6.7-39.28-17.05-5.85-5.5-11.07-11.68-17.05-17-10.76-9.57-21.7-19-33-27.93-3.4-2.7-8.15-3.72-12.28-5.51-3.12-13.35-5.07-27.14-9.89-39.85-2.2-5.81-9.87-9.72-15.42-14-2.33-1.8-7.48-1.74-8.14-3.65-7.27-20.87-29.2-22.55-43.46-34.13-1.72-1.4-2.09-4.46-3.08-6.75,23,0,46.16,1.72,68.92-.59,19.2-1.94,27.35,8.37,35.21,22.11C449.69,452.4,469.76,486,488.7,520.19,496.21,533.75,501.44,548.58,507.72,562.84Z"/><path class="cls-24" d="M507.72,562.84c-6.28-14.26-11.51-29.09-19-42.65-18.94-34.21-39-67.79-58.43-101.74-7.86-13.74-16-24.05-35.21-22.11-22.76,2.31-45.93.57-68.92.59H283.89c0-2.56-.05-5.11-.07-7.66l20.8-1.61c34.31,0,68.63.22,102.94-.13,9.1-.09,14.79,2.39,19.66,10.89C463.48,461.82,500.33,524.88,537.1,588c3.07,5.27,6.9,10.08,10.39,15.1,5.68,11.06,11.2,22.2,17.07,33.15,12.78,23.81,25.73,47.51,38.61,71.26l-6.19.11c-26.39-45.49-52.68-91-79.33-136.36C515.58,567.71,511.09,565.61,507.72,562.84Z"/><path class="cls-10" d="M15.4,267.76l86.13-.07c-10.32,1-20.65,3-30.95,2.86C52.18,270.29,33.79,268.76,15.4,267.76Z"/><path class="cls-29" d="M692.24,1052.19l-55.38.13-49.21-.11,42.92-71.11c2.84,4.56,4.9,9.93,8.66,13.53,12.62,12,25,24.69,39.15,34.68C687.22,1035.53,693.34,1041,692.24,1052.19Z"/><path class="cls-22" d="M630.57,981.1l-42.92,71.11-3.1,3.09-6.13-3.24L627.62,966l9,0Q633.59,973.56,630.57,981.1Z"/><path class="cls-28" d="M458.4,390.73c-3.13,2.6-6.38,5.07-9.35,7.84-6.59,6.14-11.16,4.66-15.87-2.71-4.5-7-9.45-14.23-15.69-19.61-26.7-23-54.05-45.22-80.91-68a55.77,55.77,0,0,1-12.68-14.7c-6.94-12.41-13.53-23.31-30.68-23.28-14.76,0-5.72-14.53-10.34-21.13q3.47-9.11,6.94-18.21,7.56-13.69,15.1-27.41,4.56-6.19,9.1-12.4,30.53,30.53,61,61c8.88,8.91,17.22,18.43,26.59,26.8,15.43,13.8,31,27.56,47.47,40,11.47,8.69,21.39,25,40,13.28q-1.49,4.62-3,9.24Z"/><path class="cls-13" d="M270.68,267.43l-12.23.28Z"/><path class="cls-10" d="M889.17,1052.26c12.67,8.46,25.51,16.68,38,25.45,12.88,9.07,29.13,15,32.89,33.14l-2.94,12.2q-17.12,32.21-34.24,64.41l-3,.13c-3.05-2.5-6.25-4.84-9.12-7.52-25.38-23.74-50-48.38-76.26-71.06-20.33-17.55-42.8-32.59-64.12-49-2.14-1.65-2.88-5.12-4.27-7.74l30.78,0Z"/><path class="cls-25" d="M796.87,1052.22l-30.78,0-73.85-.07c1.1-11.16-5-16.66-13.86-22.88-14.17-10-26.53-22.63-39.15-34.68-3.76-3.6-5.82-9-8.66-13.53q3-7.53,6-15.07L661.46,923c8.4,5.16,21.95,8.72,24.15,15.81C690.4,954.22,703,956.9,713.08,965c26.52,21.24,51,45.14,75.52,68.74C793.11,1038.07,794.2,1046,796.87,1052.22Z"/><path class="cls-16" d="M1834.17,1162.86c-5.54.63-11.17,2.18-16.6,1.66a60.13,60.13,0,0,1-18.49-4.83c-12.57-5.61-24.8-12-37.07-18.23-6.08-3.09-12-6.59-17.93-9.88-16.82-9.28-33.9-18.11-50.39-27.94-15.57-9.28-30.35-19.86-45.78-29.4-10.54-6.52-21.75-12-32.33-18.45-3.66-2.23-6.31-6.1-9.42-9.22l79.78-.57,83.33,0,2.22.59,34.08,58.14,3.27,3.16-.14,0,9.39,18.42H1818l8.83,15.5c1.15,2,2.29,4,3.44,5.93Q1832.22,1155.3,1834.17,1162.86Z"/><path class="cls-27" d="M1826.84,1141.79l-8.83-15.5C1823.83,1129.82,1834.47,1130.6,1826.84,1141.79Z"/><path class="cls-27" d="M1818.09,1126.28l-9.39-18.42Z"/><path class="cls-27" d="M1808.84,1107.84l-3.27-3.16Z"/><path class="cls-8" d="M1704.68,98.77c-10.25-8.43-19.79-17.94-30.87-25.09C1643,53.81,1611.59,35,1580.52,15.54c-1.85-1.16-2.77-3.84-4.88-6.91l24-5.4,43.21,0c6.09,6.58,11.32,14.36,18.44,19.51,20.25,14.68,41.28,28.28,62,42.31q-6.27,13.64-12.53,27.27Z"/><path class="cls-18" d="M1723.35,65c-20.73-14-41.76-27.63-62-42.31-7.12-5.15-12.35-12.93-18.44-19.51l107.57-.11,9.34.09-6.18,15.18-9.24,18.28Z"/><path class="cls-24" d="M489.13,332.26c-18.62,11.75-28.54-4.59-40-13.28-16.48-12.48-32-26.24-47.47-40-9.37-8.37-17.71-17.89-26.59-26.8q-30.48-30.57-61-61l3-3.37,9-12.54,15.69-33.64L357,114l9.09-9.4c-.5,8.48-4.58,19.51-.74,24.89,7.36,10.33,19.17,17.52,29.24,25.88,8.37,7,16.87,13.75,25.36,20.57,5.43,4.36,11,8.55,16.39,13,9.49,7.77,19.24,15.28,28.25,23.57,10.76,9.9,19.51,22.64,31.57,30.33,18.74,12,37,23.55,48.46,43.32-15.26.3-32.74-3.79-37,18.53Z"/><path class="cls-28" d="M326,175.18l-9,12.54q3-6.19,6-12.39C324,175.32,325,175.27,326,175.18Z"/><path class="cls-16" d="M316.74,898.21l6.12.25c8.32,17,17.6,33.67,24.56,51.24,3.43,8.68,17.61,17.51,3.38,28.7C337,969,323.48,959.17,309.38,950.26c-6.17-3.89-13.5-6-20.3-8.87a28.4,28.4,0,0,0,0-3.06l12.41-24.58Z"/><path class="cls-23" d="M544.6,286.07c-11.43-19.77-29.72-31.36-48.46-43.32-12.06-7.69-20.81-20.43-31.57-30.33-9-8.29-18.76-15.8-28.25-23.57-5.39-4.41-11-8.6-16.39-13-8.49-6.82-17-13.62-25.36-20.57-10.07-8.36-21.88-15.55-29.24-25.88-3.84-5.38.24-16.41.74-24.89l9.42-21.48q6.08-9.22,12.16-18.45L400,46.15C412.31,58.5,424,71.67,437.22,83c13.62,11.58,27.72,22.3,39.53,36.06,6.69,7.78,17.38,12,25.39,18.77,17.66,15,34.63,30.83,52.14,46q19.58,17,39.8,33.23c19,15.21,38,30.35,57.49,44.88,6.67,5,14.79,8,22.25,11.94q-1.73,5.94-3.44,11.88l-5.74,1-49.32-.7-24.58,0Z"/><path class="cls-8" d="M227.61,649.24l3,3.14c1.61,6.3,3.21,12.6,5.95,23.33-47-10.16-86.09-32.91-127.81-48.5.23-1.51.46-3,.7-4.53,4.72-.4,9.44-1.11,14.17-1.14,21.5-.13,43,.51,64.51-.31,12.53-.47,23.09,1.38,30.26,12.63Z"/><path class="cls-27" d="M673.82,273.86c-7.46-3.93-15.58-7-22.25-11.94-19.49-14.53-38.52-29.67-57.49-44.88q-20.22-16.22-39.8-33.23c-17.51-15.2-34.48-31-52.14-46-8-6.82-18.7-11-25.39-18.77C464.94,105.25,450.84,94.53,437.22,83,424,71.67,412.31,58.5,400,46.15q9.24-21.49,18.5-43l3.09-.08,123,0c3.11,6.54,4.75,14.57,9.6,19.34,12.67,12.47,26.6,23.7,40.32,35.07,8.7,7.21,18.11,13.56,26.85,20.71,18.84,15.44,37.62,31,56.11,46.83,7.64,6.55,14.24,14.3,21.76,21,4.95,4.42,10.38,10.52,16.18,11.25,8.47,1.07,17.47-2,26.24-3.33l-3.3,15.19L717,203.09l-12.59,24.4-21.48,31-3,6-.1.15-2.89,3.15C675.89,269.79,674.85,271.82,673.82,273.86Z"/><path class="cls-18" d="M741.64,154c-8.77,1.31-17.77,4.39-26.24,3.32-5.8-.73-11.23-6.83-16.18-11.25-7.52-6.71-14.12-14.46-21.76-21C659,109.2,640.19,93.67,621.35,78.23c-8.74-7.15-18.15-13.5-26.85-20.71-13.72-11.37-27.65-22.6-40.32-35.07-4.85-4.77-6.49-12.8-9.6-19.34l58.51,0c11,1,22,1.58,32.88,3.22,5.08.77,10.63,2.6,14.64,5.67,16.73,12.84,33.4,25.83,49.23,39.75,12,10.58,22.42,23,34.21,33.94,10.74,9.93,21.26,21.17,38.21,18.91q-4.65,10.73-9.31,21.47Z"/><path class="cls-30" d="M809.38,799.76c-16.61-29.88-32.83-60-49.93-89.57-22.46-38.87-45.74-77.25-68.41-116-16.21-27.7-32-55.65-47.95-83.48-15.48-27.22-31.2-54.3-46.25-81.75-3.16-5.76-3.86-12.86-5.69-19.35l18-15.93c1.62,4.13,2.1,9.54,5,12.18,19.8,17.66,40.25,34.59,60.25,52,26.76,23.32,53.3,46.9,80,70.32,3.06,2.68,6.39,5.06,9.6,7.57,11,8.66,22.21,17.17,33.1,26,11.06,9,22.17,18,32.69,27.57,23.21,21.19,46.05,42.77,69.05,64.18a9.06,9.06,0,0,0,1.34.74c16.64,10.53,34.9,19,44.1,38.42,1.86,3.91,7.73,6.11,12,8.62,5.64,3.29,12.52,5,17.15,9.33,12.21,11.28,22.85,24.26,35.26,35.28,18.94,16.81,38.78,32.62,58.39,48.66a48.55,48.55,0,0,0,10.49,6c14.71,6.8,16.65,14.12,10.62,29.59-4.15,10.66-5.69,22.34-8.4,33.56l-82.95.95-21.55-.08-126.06.16-3.46-3.44-2.76-3,.11.05-24.57-43.17c-1.05-2-2.11-4-3.17-6l-6.12-9.36Z"/><path class="cls-19" d="M815.4,809.15c1.06,2,2.12,4,3.17,6-4.56,19.79,5.17,36.88,24.57,43.17l-.11-.05,2.76,3,3.46,3.44c2.33,1.85,4.81,5.46,7,5.28,23.63-2.06,37.64,14.86,54.52,26.45,6.43,4.42,15.79,5.06,21.41,10.1,21.83,19.59,43.17,39.8,63.45,61,3.41,3.55,2.18,13.43.4,19.61-2.5,8.73-7.51,16.73-11.44,25.05-7.68,23.35-25.85,36.94-49.42,37H920c-9.68-8.13-19.86-15.73-28.89-24.52-10.23-9.94-18.32-22.32-29.31-31.19-19.71-15.92-41.9-28.83-61.17-45.21-18-15.28-34.44-32.67-49.92-50.55-15.11-17.47-32.58-29.39-55.42-33.18-27.43-49.34-54.79-98.73-82.47-148-2.06-3.67-6.37-6.08-9.64-9.07-12.88-23.75-25.83-47.45-38.61-71.26-5.87-11-11.39-22.09-17.07-33.15,20.58-.82,22,18.92,29.24,30.22,6.66,10.44,12,16.48,24.42,16C612.4,648.89,621.56,652,622,666c.07,2.11,2,4.81,3.91,6.12,15.57,11,32.19,20.62,46.84,32.67,21.28,17.52,41.05,36.87,61.75,55.11,12.89,11.36,27.11,21.32,39.26,33.38,11,11,23.42,6.34,35.6,6.52l-.1,0Z"/><path class="cls-26" d="M695.28,864.51c22.84,3.79,40.31,15.71,55.42,33.18,15.48,17.88,31.93,35.27,49.92,50.55,19.27,16.38,41.46,29.29,61.17,45.21,11,8.87,19.08,21.25,29.31,31.19,9,8.79,19.21,16.39,28.89,24.52l-30.82,3.09-92.3,0c-2.67-6.25-3.76-14.15-8.27-18.48-24.55-23.6-49-47.5-75.52-68.74-10.11-8.1-22.68-10.78-27.47-26.23-2.2-7.09-15.75-10.65-24.15-15.81Q678.38,893.74,695.28,864.51Z"/><path class="cls-23" d="M763,126.1q4.65-10.74,9.31-21.47,4.61-6.16,9.22-12.31c26.48,20.85,53.71,40.82,79.26,62.75,45.55,39.09,90,79.46,135.06,119.14,31.17,27.46,62.56,54.67,93.87,82q10.36,9,20.86,17.93c29.83,25.36,59.34,51.1,89.66,75.87,12.33,10.07,26.42,18,39.7,26.9,9.7,15.52,20,30.7,28.95,46.62,12.45,22.09,23.91,44.74,35.79,67.15-4.28-3-8.93-5.67-12.76-9.2-4.45-4.1-7.67-9.6-12.29-13.44-20.61-17.1-41.92-33.38-62.21-50.84-18.08-15.55-34.66-32.85-52.81-48.32-25.56-21.78-52.42-42-77.9-63.91-38.49-33-76.28-66.9-114.37-100.41.13-8-.27-15.65-11.41-15.26l-4.1-3.39L938.43,283c-5.42-7.73-9.53-17-16.47-22.94-41.67-35.65-84-70.5-126.07-105.7C784.8,145.09,773.93,135.54,763,126.1Z"/><path class="cls-27" d="M1239.89,476.89c-13.28-8.9-27.37-16.83-39.7-26.9-30.32-24.77-59.83-50.51-89.66-75.87q-10.47-8.91-20.86-17.93c-31.31-27.31-62.7-54.52-93.87-82-45-39.68-89.51-80-135.06-119.14-25.55-21.93-52.78-41.9-79.26-62.75l18.45-30.78c9.93,4.28,21.58,6.53,29.47,13.22,31,26.28,60.35,54.55,91.26,81,29.27,25,60.45,47.77,89.51,73,32.21,27.94,62.64,57.93,94.5,86.28,18.89,16.82,40,31.25,58.39,48.52,19.48,18.25,37,38.61,55.36,58.05,2.19,8.55,3.55,17.44,6.8,25.57C1229.3,457.37,1234.93,467,1239.89,476.89Z"/><path class="cls-8" d="M1239.89,476.89c-5-9.89-10.59-19.52-14.67-29.77-3.25-8.13-4.61-17-6.8-25.57,7.19-.36,9.85,2.29,6.1,9.19q26.16,44.61,52.3,89.22l61.5,104.6q18.53,33.18,37.07,66.37,20,35.93,40,71.85l-.06,3.21-.33,9.46c-1,0-2-.08-3.06-.1l-43-77-2.92-3.19a14.76,14.76,0,0,0-.38-2.88c-7.31-12.81-14.35-25.78-22-38.39-12.84-21.21-26-42.2-39.11-63.28-11.88-22.41-23.34-45.06-35.79-67.15C1259.87,507.59,1249.59,492.41,1239.89,476.89Z"/><path class="cls-23" d="M1685.94,1046l-79.78.57c-22.55,2.47-42-1.45-51.51-25.37-2.28-4.55-4.39-9.18-6.84-13.63q-23.3-42.15-46.7-84.23l6-1c1,.13,2,.26,3,.37,16.19,28.81,33.9,56.88,48.1,86.64,12,25.07,29.74,32.56,56,30.75,25.88-1.78,52-.25,78-.18Z"/><path class="cls-9" d="M1507.06,922.37l-6,1-5.31-1.63c-7.34-14.39-14.22-29.05-22.11-43.14-19.3-34.51-39.06-68.75-58.64-103.11l.33-9.46c10.1,15.79,20.82,31.24,30.19,47.45C1466.42,849.55,1486.6,886,1507.06,922.37Z"/><path class="cls-28" d="M695.28,864.51q-16.9,29.24-33.82,58.45L636.62,966l-9,0c.09-2,.17-4,.26-6l6-9.18,2.87-3.12,24.88-46.22c7.18-10.41,15-20.47,21.18-31.45,1.93-3.42,1-10.14-1.19-13.93-16.6-29.18-33.81-58-50.84-87L597,707.6l6.2-.11c3.27,3,7.58,5.4,9.64,9.07C640.49,765.78,667.85,815.17,695.28,864.51Z"/><path class="cls-29" d="M636.71,947.7l-2.87,3.12Z"/><path class="cls-23" d="M1341.09,966c-15.6,5.66-25.88-.5-34.79-13.58-4.28-6.29-12.19-10.14-18.58-14.93-1.6-1.2-4.08-1.38-5.44-2.74-17.21-17.13-34.88-33.85-51.14-51.85-7.43-8.23-3.3-14.94,8.2-15.19,15.33-.34,30.69.17,46-.26,5.35-.15,10.66-2,16-3.07l-.11-.49c12.63.16,25.32-.27,37.9.65,12.37.9,22.81-1.33,29.92-12.39-1.26,4.31-1.53,9.29-4,12.81-10.19,14.83-9.8,16.87,6.36,25.39,8.55,4.5,17.63,8.48,25.06,14.46,5.42,4.35,8.54,11.58,12.69,17.52l-33.89.77c-4.45,2.51-10.47,3.94-13.08,7.72C1354.47,942.07,1348,954.22,1341.09,966Z"/><path class="cls-16" d="M1375.31,923.12l33.89-.76,86.6-.67,5.31,1.64q23.37,42.12,46.7,84.24c2.45,4.45,4.56,9.08,6.84,13.63-21.78,3.82-37-8.37-53.89-19.52-16.18-10.7-35.43-16.64-53-25.4-23.32-11.63-46.57-23.48-69.11-36.53C1375.44,937.88,1376.33,928.84,1375.31,923.12Z"/><path class="cls-11" d="M1301.33,864.4l-67.73-.58c-.3-12.84-4.35-21.57-17-29.17-17.36-10.45-31.54-26.11-47.53-39-14-11.28-28.65-21.8-43-32.66-5.46-5.18-10.81-10.49-16.4-15.52-43.38-39-86.36-78.54-130.4-116.82-25.71-22.34-53.73-42-79.68-64.13-31.69-27-62.17-55.38-93.43-82.86-21.79-19.15-44-37.78-66-56.67-15.44-13.26-30.44-27.07-46.36-39.72-18.57-14.76-37.91-28.53-56.92-42.73l15.42-39.93c8.56,1,18.29-.33,25.49,3.34,28.11,14.3,56,29.23,82.9,45.7,31.06,19,60.78,40.25,91.46,59.94C870.94,425.69,893.56,432,908,450.84c2,2.67,5.73,4.21,8.87,5.86,34.46,18.15,69.28,35.64,103.34,54.52,24.44,13.54,47.58,29.42,72,43.07,5.89,3.3,14.44,1.86,21.76,2.6l24.43,36.93c4.14,8.73,8,17.63,12.48,26.17,9,17,18.33,33.83,27.53,50.73-13.37,11.4-22.45-.62-32.38-6.26-24.3-13.8-48.58-27.68-72.45-42.21-20-12.16-39.17-25.55-59-37.84-8.84-5.46-18.53-9.57-27.84-14.29l-3.7,4.88c9.67,9.29,19.08,18.89,29.08,27.81,20.76,18.53,42,36.56,62.75,55.06,18.6,16.54,36.8,33.53,55.33,50.15,24.5,22,49,43.9,73.77,65.58,15.19,13.3,30.79,26.13,46.28,39.08,16,13.36,32.24,26.39,47.87,40.14,2.44,2.14,2.2,7.32,3.2,11.09Z"/><path class="cls-17" d="M1079.81,863.71c2.71-11.22,4.25-22.9,8.4-33.56,6-15.47,4.09-22.79-10.62-29.59a48.55,48.55,0,0,1-10.49-6c-19.61-16-39.45-31.85-58.39-48.66-12.41-11-23.05-24-35.26-35.28-4.63-4.28-11.51-6-17.15-9.33-4.3-2.51-10.17-4.71-12-8.62-9.2-19.44-27.46-27.89-44.1-38.42a9.06,9.06,0,0,1-1.34-.74c-23-21.41-45.84-43-69.05-64.18-10.52-9.61-21.63-18.58-32.69-27.57C786.2,553,775,544.44,764,535.78c-3.21-2.51-6.54-4.89-9.6-7.57-26.67-23.42-53.21-47-80-70.32-20-17.44-40.45-34.37-60.25-52-2.95-2.64-3.43-8.05-5-12.18q4.68-10.68,9.35-21.37c13.14,8.91,27.65,16.36,39.12,27.06,21.86,20.39,40.3,44.72,63.38,63.43,17.56,14.23,28,38.14,53.79,42.09,2.2.34,3.65,4.62,5.71,6.83,12.36,13.22,24.3,26.9,37.37,39.39,12.1,11.57,25.74,21.51,38.16,32.76,17.18,15.58,33.77,31.8,50.75,47.59q15.53,14.43,31.46,28.42c15.48,13.66,31.24,27,46.62,40.77,10.45,9.36,20.52,19.14,30.64,28.87,12,11.52,23.3,23.81,35.92,34.59,10,8.53,23.45,13.6,31.85,23.26,9.21,10.61,18.13,13.39,30.52,9.48C1129.35,809,1146,820,1160.11,833.6c8.14,7.85,12.21,19.91,18.12,30.08-27.25.24-54.5.53-81.75.69C1090.93,864.4,1085.37,863.94,1079.81,863.71Z"/><path class="cls-14" d="M1178.23,863.68c-5.91-10.17-10-22.23-18.12-30.08C1146,820,1129.35,809,1113.76,796.85L1126.07,763c14.37,10.86,29,21.38,43,32.66,16,12.87,30.17,28.53,47.53,39,12.63,7.6,16.68,16.33,17,29.17Z"/><path class="cls-13" d="M591.15,409.61c1.83,6.49,2.53,13.59,5.69,19.35,15,27.45,30.77,54.53,46.25,81.75-1.53-.09-3.49.42-4.52-.34-14.27-10.48-28.34-21.23-42.62-31.69a83.46,83.46,0,0,0-12.87-7.59c-3.16-1.52-7.14-1.51-10.09-3.28-34.32-20.53-68.67-41-102.58-62.21-5.11-3.19-8.06-9.83-12-14.87l27.74-49.23c7.32,4.72,14.7,9.36,21.94,14.2,5.38,3.59,10.46,7.64,15.9,11.13Q557.49,388.34,591.15,409.61Z"/><path class="cls-26" d="M591.15,409.61q-33.6-21.36-67.17-42.78c-5.44-3.49-10.52-7.54-15.9-11.13-7.24-4.84-14.62-9.48-21.94-14.2q1.5-4.62,3-9.24l18.5-27.66c5.5,1,11.7.64,16.37,3.16,28.24,15.19,56.31,30.73,84,47,4.68,2.75,7,9.49,10.46,14.39,0,1.06,0,2.12.05,3.18q-4.68,10.68-9.35,21.37Z"/><path class="cls-25" d="M618.42,369.13c-3.43-4.9-5.78-11.64-10.46-14.39-27.65-16.25-55.72-31.79-84-47-4.67-2.52-10.87-2.18-16.37-3.16,4.23-22.32,21.71-18.23,37-18.53l46.14,0,24.58,0,49.32.7-12.39,17.87-15.42,39.93Z"/><path class="cls-31" d="M652.25,304.63l12.39-17.87,5.74-1,77.16,3.33c1.28,3.76,1.41,9,4,11.05,14.8,11.63,29.62,23.41,45.54,33.38,18.93,11.86,39.44,21.2,58.44,33,31.88,19.72,62.79,41,94.7,60.67,26.47,16.31,53.4,32,80.94,46.39,11.93,6.23,24.19,16.18,39.7,9.31l8.87,9.49,3.21,6.09,0,0,30.93,58.44c-7.32-.74-15.87.7-21.76-2.6-24.4-13.65-47.54-29.53-72-43.07-34.06-18.88-68.88-36.37-103.34-54.52-3.14-1.65-6.84-3.19-8.87-5.86-14.41-18.88-37-25.15-55.87-37.23-30.68-19.69-60.4-40.9-91.46-59.94-26.89-16.47-54.79-31.4-82.9-45.7C670.54,304.3,660.81,305.61,652.25,304.63Z"/><path class="cls-13" d="M747.54,289.07l-77.16-3.32q1.73-6,3.44-11.89c1-2,2.07-4.07,3.1-6.1l2.89-3.15.1-.15q1.49-3,3-6l21.48-31Q745.22,254.69,786,282c1,.68,1.11,2.74,1.63,4.15Z"/><path class="cls-24" d="M615.32,286.06l-24.58,0Z"/><path class="cls-24" d="M763,126.1c11,9.44,21.85,19,32.94,28.28,42.05,35.2,84.4,70.05,126.07,105.7,6.94,5.95,11,15.21,16.47,22.94l-.09.09L883,283c-2.44-3.69-4.22-8.16-7.45-11-34.1-29.6-69-58.35-102.39-88.68-10.57-9.6-20.28-16.62-34.86-14.2l3.3-15.19Q752.31,140.05,763,126.1Z"/><path class="cls-28" d="M738.34,169.18c14.58-2.42,24.29,4.6,34.86,14.2,33.43,30.33,68.29,59.08,102.39,88.68,3.23,2.8,5,7.27,7.45,11l-.07.08-21.5,3L833.8,286c-1.4-2.6-2.17-6-4.28-7.69-19.55-16-38.83-32.46-59.19-47.42C754.11,219,743.44,195.53,717,203.09Z"/><path class="cls-22" d="M717,203.09c26.49-7.56,37.16,15.92,53.38,27.83,20.36,15,39.64,31.39,59.19,47.42,2.11,1.73,2.88,5.09,4.28,7.69l-46.15.07c-.52-1.41-.61-3.47-1.63-4.15q-40.74-27.34-81.66-54.46Z"/><path class="cls-23" d="M682.88,258.46q-1.49,3-3,6Z"/><path class="cls-23" d="M679.81,264.61l-2.89,3.15Z"/><path class="cls-22" d="M843.14,858.34c-19.4-6.29-29.13-23.38-24.57-43.17Z"/><path class="cls-22" d="M815.4,809.15l-6.12-9.36Z"/><path class="cls-22" d="M845.79,861.3l-2.76-3Z"/><path class="cls-24" d="M1304.63,590.66c13.06,21.08,26.27,42.07,39.11,63.28,7.63,12.61,14.67,25.58,22,38.39-4.39-2.26-9.35-3.82-13.07-6.88-26.41-21.76-52.87-43.49-78.74-65.89-36.5-31.61-72.47-63.83-108.72-95.72-21.33-18.76-42.4-37.84-64.27-56-21.39-17.71-46.41-31.12-63.29-54.14-.7-1-2.82-.89-4.28-1.3-3.45-4.28-7.53-8.2-10.24-12.9-11.6-20.15-22.88-40.48-34.1-60.83-6.09-11.05-11.82-22.28-17.71-33.43l1-.75c38.09,33.51,75.88,67.37,114.37,100.41,25.48,21.87,52.34,42.13,77.9,63.91,18.15,15.47,34.73,32.77,52.81,48.32,20.29,17.46,41.6,33.74,62.21,50.84,4.62,3.84,7.84,9.34,12.29,13.44C1295.7,585,1300.35,587.63,1304.63,590.66Z"/><path class="cls-24" d="M960.89,289.28c11.13-.39,11.53,7.24,11.4,15.26l-1,.75q-5.84-8.12-11.7-16.2Z"/><path class="cls-24" d="M938.43,283l18.35,2.87s.43,1.12.42,1.11l-18.82-.8,0-3.09Z"/><path class="cls-31" d="M956.78,285.89l4.1,3.39-1.27-.19-2.4-2.08Z"/><path class="cls-28" d="M1033.36,412.45c1.46.41,3.58.34,4.28,1.3,16.88,23,41.9,36.43,63.29,54.14,21.87,18.11,42.94,37.19,64.27,56,36.25,31.89,72.22,64.11,108.72,95.72,25.87,22.4,52.33,44.13,78.74,65.89,3.72,3.06,8.68,4.62,13.07,6.88a15.55,15.55,0,0,1,.37,2.88l2.92,3.19,43,77-5.94,6.15c-2.31-4.89-3.4-11.2-7.14-14.43-21.32-18.43-43.38-36-65-54.11q-43.74-36.72-87.13-73.87c-17.69-15.15-35.11-30.6-52.5-46.09-7.43-6.61-14.16-14-21.75-20.45-14.93-12.62-30.25-24.78-45.39-37.16-12.71-10.4-28.26-17.72-35.84-33.79-.91-1.93-5.47-2.14-8.34-3.15l0,0-3.21-6.09-8.87-9.49Z"/><path class="cls-27" d="M1406.05,781.5l5.94-6.15c1,0,2,.06,3.06.1,19.58,34.36,39.34,68.6,58.64,103.11,7.89,14.09,14.77,28.75,22.11,43.14l-86.6.66c-4.15-6-7.27-13.18-12.69-17.53-7.43-6-16.51-10-25.06-14.46-16.16-8.52-16.55-10.56-6.36-25.39,2.42-3.52,2.69-8.5,4-12.81v0l3.16-6.1,15.36-30.79Z"/><path class="cls-24" d="M1369,698.4l-2.92-3.19Z"/><path class="cls-10" d="M1301.22,863.91c-1-3.77-.76-8.95-3.2-11.09-15.63-13.75-31.89-26.78-47.87-40.14-15.49-12.95-31.09-25.78-46.28-39.08C1179.12,751.92,1154.6,730,1130.1,708c-18.53-16.62-36.73-33.61-55.33-50.15-20.79-18.5-42-36.53-62.75-55.06-10-8.92-19.41-18.52-29.08-27.81l3.7-4.88c9.31,4.72,19,8.83,27.84,14.29,19.88,12.29,39.09,25.68,59,37.84,23.87,14.53,48.15,28.41,72.45,42.21,9.93,5.64,19,17.66,32.38,6.26,1.43.52,3.19.66,4.22,1.61,23.43,21.62,46.68,43.45,70.19,65,19.8,18.14,40.16,35.68,59.79,54,19.2,17.95,37.79,36.56,56.64,54.89q-.08,3-.17,6v0c-7.11,11.06-17.55,13.29-29.92,12.39C1326.54,863.64,1313.85,864.07,1301.22,863.91Z"/><path class="cls-31" d="M618.42,369.13l18.41-24.57c19,14.2,38.35,28,56.92,42.73,15.92,12.65,30.92,26.46,46.36,39.72,22,18.89,44.26,37.52,66,56.67,31.26,27.48,61.74,55.89,93.43,82.86,25.95,22.1,54,41.79,79.68,64.13,44,38.28,87,77.79,130.4,116.82,5.59,5,10.94,10.34,16.4,15.52l-12.31,33.84c-12.39,3.91-21.31,1.13-30.52-9.48-8.4-9.66-21.86-14.73-31.85-23.26-12.62-10.78-23.93-23.07-35.92-34.59-10.12-9.73-20.19-19.51-30.64-28.87-15.38-13.77-31.14-27.11-46.62-40.77q-15.9-14-31.46-28.42c-17-15.79-33.57-32-50.75-47.59-12.42-11.25-26.06-21.19-38.16-32.76-13.07-12.49-25-26.17-37.37-39.39-2.06-2.21-3.51-6.49-5.71-6.83C749,500.94,738.53,477,721,462.8c-23.08-18.71-41.52-43-63.38-63.43-11.47-10.7-26-18.15-39.12-27.06C618.45,371.25,618.44,370.19,618.42,369.13Z"/><path class="cls-22" d="M1406.05,781.5l-18.49,33.82c-2.31-2-5.47-3.47-6.8-6-15-28-37.23-48.67-64.08-65.12C1308.1,739,1300.4,732,1293,725.09c-13.53-12.76-25.88-26.81-39.86-39-23.67-20.71-48-40.66-72.49-60.46-13.71-11.09-28.19-21.22-42.33-31.78l-24.43-36.93L1083,498.45c2.87,1,7.43,1.22,8.34,3.15,7.58,16.07,23.13,23.39,35.84,33.79,15.14,12.38,30.46,24.54,45.39,37.16,7.59,6.41,14.32,13.84,21.75,20.45,17.39,15.49,34.81,30.94,52.5,46.09q43.38,37.15,87.13,73.87c21.59,18.12,43.65,35.68,65,54.11C1402.65,770.3,1403.74,776.61,1406.05,781.5Z"/><path class="cls-13" d="M1138.35,593.82c14.14,10.56,28.62,20.69,42.33,31.78,24.46,19.8,48.82,39.75,72.49,60.46,14,12.22,26.33,26.27,39.86,39,7.37,6.95,15.07,13.9,23.65,19.15,26.85,16.45,49.06,37.12,64.08,65.12,1.33,2.49,4.49,4,6.8,6l-15.36,30.79-3,.11c-18.85-18.33-37.44-36.94-56.64-54.89-19.63-18.33-40-35.87-59.79-54-23.51-21.54-46.76-43.37-70.19-65-1-1-2.79-1.09-4.22-1.61-9.2-16.9-18.55-33.72-27.53-50.73C1146.32,611.45,1142.49,602.55,1138.35,593.82Z"/><path class="cls-30" d="M1033.36,412.45l37.53,70.39c-15.51,6.87-27.77-3.08-39.7-9.31-27.54-14.4-54.47-30.08-80.94-46.39-31.91-19.66-62.82-40.95-94.7-60.67-19-11.76-39.51-21.1-58.44-33-15.92-10-30.74-21.75-45.54-33.38-2.62-2.06-2.75-7.29-4-11.05l40.11-3L833.8,286l27.67.1H883l55.37.07,18.82.8,2.41,2.09q5.85,8.1,11.7,16.2c5.89,11.15,11.62,22.38,17.71,33.43,11.22,20.35,22.5,40.68,34.1,60.83C1025.83,404.25,1029.91,408.17,1033.36,412.45Z"/><path class="cls-22" d="M1079.76,492.33l3.21,6.09Z"/><path class="cls-28" d="M938.38,286.2,883,286.13c0-1,0-2,0-3L883,283l55.3.09C938.35,284.14,938.36,285.17,938.38,286.2Z"/><path class="cls-22" d="M883,283.1c0,1,0,2,0,3H861.47Z"/><path class="cls-23" d="M1369.2,846.22l3-.11-3.16,6.1C1369.09,850.21,1369.15,848.21,1369.2,846.22Z"/></g></g></g></svg>