<svg xmlns="http://www.w3.org/2000/svg" viewBox="0 0 86 86"><defs><style>.cls-1{fill:#fd8a00;}</style></defs><g id="Layer_2" data-name="Layer 2"><g id="Layer_5" data-name="Layer 5"><path class="cls-1" d="M43,0A43,43,0,1,0,86,43,43,43,0,0,0,43,0ZM65.38,45.65a3.55,3.55,0,0,1-2.62.88H46.66V62.9a3.77,3.77,0,0,1-.87,2.62,3.37,3.37,0,0,1-2.62,1,3.36,3.36,0,0,1-2.62-1,3.72,3.72,0,0,1-.88-2.62V46.53H23.58A3.59,3.59,0,0,1,21,45.65a3.32,3.32,0,0,1-.92-2.53A3.32,3.32,0,0,1,21,40.6a3.59,3.59,0,0,1,2.58-.88H39.67V23.81a3.55,3.55,0,0,1,.88-2.57,3.54,3.54,0,0,1,2.71-.92,3.3,3.3,0,0,1,2.53.92,3.59,3.59,0,0,1,.87,2.57V39.72h16.1a3.55,3.55,0,0,1,2.62.88,3.41,3.41,0,0,1,.87,2.52A3.42,3.42,0,0,1,65.38,45.65Z"/></g></g></svg>