<svg xmlns="http://www.w3.org/2000/svg" viewBox="0 0 54.42 54.09"><defs><style>.cls-1{fill:#5f1ec4;}</style></defs><g id="Layer_2" data-name="Layer 2"><g id="Layer_5" data-name="Layer 5"><g id="home"><path class="cls-1" d="M34.46,54.09V50.84c0-4.71,0-9.43,0-14.15,0-2.18-.9-3.07-3.09-3.07H21.76c-2.1,0-3,.89-3,3q0,7.95,0,15.89V54c-3.87,0-7.6.11-11.32,0-2-.09-3-1.58-3.06-3.71,0-4.1,0-8.19,0-12.29,0-4.85,0-9.7,0-14.55a1.51,1.51,0,0,1,.91-1.55c6.82-3.74,13.6-7.56,20.45-11.25a3.35,3.35,0,0,1,2.72-.07c6.86,3.67,13.64,7.48,20.47,11.2a1.91,1.91,0,0,1,1.13,2c0,8.63,0,17.26,0,25.9,0,3.22-1.23,4.47-4.42,4.47Z"/><path class="cls-1" d="M38.79,7.32c0-2,0-3.72,0-5.45C38.8.32,39.09,0,40.67,0c1.2,0,2.41,0,3.61,0S46,.52,46,1.7c0,2.89,0,5.78,0,8.67a1.71,1.71,0,0,0,1,1.78c1.89,1,3.74,2,5.6,3.09s2.31,2.37,1.56,3.69-2.19,1.47-3.86.51c-7-4-13.94-8-20.87-12.08a3.83,3.83,0,0,0-4.33,0C18,11.48,11,15.52,3.93,19.57c-1.46.84-2.95.56-3.63-.64a2.58,2.58,0,0,1,1.22-3.5l.12-.06q12-6.88,23.9-13.77a2.92,2.92,0,0,1,3.34,0c2.82,1.7,5.68,3.32,8.52,5C37.78,6.8,38.16,7,38.79,7.32Z"/></g></g></g></svg>