<svg xmlns="http://www.w3.org/2000/svg" viewBox="0 0 46.96 46.92"><defs><style>.cls-1{fill:#5f1ec4;}</style></defs><g id="Layer_2" data-name="Layer 2"><g id="Layer_5" data-name="Layer 5"><g id="Pesquisa"><path class="cls-1" d="M46.77,42.68c-1.84-1.83-3.66-3.68-5.49-5.51-2.19-2.19-4.42-4.35-6.56-6.59a2.6,2.6,0,0,0-2.53-1c-.63.12-1-.24-1.35-.71.08-.1.15-.22.23-.32a16.79,16.79,0,0,0,2.71-4.6,17.2,17.2,0,0,0,.45-11.56,17.06,17.06,0,0,0-4.36-7.26A18,18,0,0,0,26,2.19,17,17,0,0,0,16.88,0,16.84,16.84,0,0,0,11.8,1a18.52,18.52,0,0,0-3,1.35A16.93,16.93,0,0,0,3.49,7.05,16.93,16.93,0,0,0,.44,21.2a16.81,16.81,0,0,0,7.71,11c.43.28.88.54,1.34.78a17.07,17.07,0,0,0,10.26,1.82,17,17,0,0,0,8.73-3.75c.28-.22.46-.27.73,0a1.17,1.17,0,0,1,.38.92c0,.39,0,.78,0,1.17a.87.87,0,0,0,.29.71q6.43,6.41,12.85,12.84c.26.26.41.23.65,0,1.12-1.14,2.24-2.27,3.39-3.38C47,43.09,47,43,46.77,42.68ZM17.51,29.53A12.06,12.06,0,0,1,13.22,6.2a12.36,12.36,0,0,1,4.33-.77,12.06,12.06,0,0,1,8.88,3.93,11.79,11.79,0,0,1,3.15,8A12,12,0,0,1,17.51,29.53Z"/></g></g></g></svg>