<svg xmlns="http://www.w3.org/2000/svg" viewBox="0 0 1960.93 883.4"><defs><style>.cls-1{opacity:0.99;}.cls-2{fill:#59439e;}.cls-3{fill:#7f73c6;}.cls-4{fill:#6f5eb7;}.cls-5{fill:#303234;}.cls-6{fill:#fff;}</style></defs><g id="Layer_2" data-name="Layer 2"><g id="Layer_2-2" data-name="Layer 2"><g class="cls-1"><rect class="cls-2" y="750.84" width="1957.8" height="132.56"/><path class="cls-3" d="M1491.27,337.8c0-6.77.33-13.55.07-20.31-.31-8.17,3.62-11.2,11.42-10.91s15.61.06,25.32.06v-56h50.08V.88c6.62-.36,11.19-.83,15.75-.84q86.88-.08,173.77,0c17.42,0,17.47.08,17.49,17.23,0,26.54,0,53.08,0,81.63h159.94v40.47c0,12.5,0,25,0,37.51.07,14.65.11,14.65,15.8,20v59.42l-65.38-.67V236.74h-61.88v-120H1691.5v73.84c-8.46-.54-8.62,4.9-8.59,11.19.14,33.88-.06,67.76.1,101.63,0,9.31.87,18.62,1.34,27.93l-.08,90.83c-2.43,2.79-4.76,7.84-7.31,8-9.07.42-18.22-.85-27.34-1.48V337.8Z"/><path class="cls-3" d="M0,115.51H113c0,16.14,0,31,0,45.81.06,14.3.16,14.1,13.52,17,19.7,4.24,39.34,8.81,60.45,13.56.48,30.28.95,60.74,1.43,91.21-21.26.26-42.52.69-63.78.76-33.75.11-33.79,0-54.36,25.88-1.85,2.33-4.08,5.32-4.06,8,.13,11.82,1,23.64,1.63,35.47l-.13,1.53c-4.59,1.37-9.12,3.59-13.78,3.93-9.57.71-19.22.42-28.83.54l-9.44,0L0,359.45Z"/><path class="cls-4" d="M263.91,299.58H193.64c-1.3,26.06-2.5,50-3.78,75.86l-71.58.16c1,12.66.21,23,1,33.65,0,20.84-.44,41.92-.41,62.76q.06,15.64.14,31.3,0,43.8,0,87.57l0,62,.32,0c.3,20.17-.29,58.94-.29,78.41-1.61,1.37-22.31,3.06-23.16,3.17-30.95,3.61-11.25,2.82-11.23-28.3,0-17.62.11-35.24.16-52.86q-.07-3.09-.17-6.2c.11-17.68-.75-35.44.61-53,1.18-15.16,1.93-15.66-13.3-15.73-24-.12-47.95,0-71.92,0V359.45l15.64-.26,9.44,0c9.61-.12,19.26.17,28.83-.54,4.66-.35,9.19-2.56,13.78-3.93l.13-1.54c-.61-11.81-1.5-23.63-1.62-35.46,0-2.66,2.2-5.66,4-8,20.57-25.9,20.6-25.77,54.37-25.89,21.26-.07,42.52-.48,63.77-.75h70.7C260.85,289.08,262.38,294.33,263.91,299.58Z"/><path class="cls-4" d="M1960.93,256.24V522.07c-7.67-4-16.09-7-22.83-12.24-11-8.51-43.17-36.24-43.52-36.34.35.1-.14-6.46.55-17.08q.07-18.8.14-37.57-.07-43.75-.14-87.53.21-37.87.43-75.73Q1928.25,255.9,1960.93,256.24Z"/><path class="cls-4" d="M1960.86,259.3V525.13c-7.67-4-16.09-7-22.83-12.24-11-8.51-43.18-36.24-43.52-36.34.34.1-.15-6.46.55-17.08q.07-18.8.14-37.57-.08-43.75-.14-87.53.21-37.87.43-75.73Z"/><path class="cls-3" d="M720.53,237.43c20.31,0,40.63.06,60.94-.13,12.75-.11,13.35-.86,13.83-13,.07-1.55-.12-3.13.05-4.67.93-8.49-1.18-20.81,3.57-24.67,10.79-8.76,22.75-17.54,39-17,28.1,1,56.25.27,84.38.27h17.6v-20.8c0-13-.09-26,0-39,.11-14.39.55-15,14.94-15q58.6-.17,117.2,0c14.2,0,14.64.59,14.71,15.23q.27,53,.35,106.08c-8.8.12-19.2,6.68-27.64,5-21-4.19-31.54,3-42.18,17.55-2.56,3.51.36,8.79.38,13,.1,25.82-4,51.27-3.51,77.09-.54,20.11-1.26,40.22-1.57,60.33-.38,24.77-.42,49.54-.6,74.32H983.35V326H898.94V440.76q-.09,18.44-.19,36.86c-10.58-1.3-25,15.32-24.88,4,.54-3,9.67-28,9.67-31q.09-65.6-.13-131.18c0-1.89-1-3.77-1.73-6.39H720.28Q720.4,275.23,720.53,237.43Z"/><path class="cls-4" d="M720.53,237.43q-.12,37.82-.25,75.6c-6.62,2.8-9.65,6.87-9.5,15,.63,32.2.42,64.42.15,96.64-.12,14.15-2.34,16-16.49,16.08-13,.1-26,0-39.05,0-4.65,0-9.84-.81-10.16,6.25q.06,14.1.13,28.2v6.22c0,3.14,0,6.27,0,9.41q0,28.14,0,56.29c-12.56,13.51-22,23-34.54,36.5l-90.8-1c0-24,0-39.66,0-63.64q.5-42.92,1-85.83c5.33-.22,12.28,4.39,14.56-4.88q-.15-92.88-.3-185.75c0-22.12,6.93-29.43,29.11-30.79H718.72C719.39,221.24,720,229.33,720.53,237.43Z"/><path class="cls-3" d="M1446.94,338.89c-5.11,1.73-9.94-1.4-15,.34l-81.7.7-12.62.77v25q0,6.24,0,12.5c-.13,14.85-.55,29.71-.28,44.55.13,6.87-2.64,9.33-9.09,8.63q-.75-26.56-1.51-53.12,0-23.52,0-47V253H1287.7V199.79h52.59v55.73h106.26C1445.92,283.82,1445.92,312.38,1446.94,338.89Z"/><path class="cls-3" d="M485.26,256.32q.5-40.92,1-81.86h78.09V211.7c-22.17,1.36-29.12,8.67-29.09,30.78q.1,92.88.29,185.76c-2.28,9.27-9.23,4.67-14.56,4.88q-.5-18.08-1-36.14,0-21.89,0-43.78c.15-21.32,0-42.64.6-63.95.2-7.17-2.31-11.41-8.34-15C503,268.71,494.24,262.34,485.26,256.32Z"/><path class="cls-3" d="M322.91,212.76c-8.08,7.5-10.51,16.53-10.12,27.62.69,19.58-.29,39.22-.57,58.83l-40.36-.61q.31-35.07.63-70.14c.16-15.12.39-15.34,16.06-15.5C300,212.84,311.46,212.82,322.91,212.76Z"/><path class="cls-2" d="M607.64,582.54c9.82,2.35,19.63,6.7,29.46,6.75q162.63.72,325.27.15c16.52,0,33-2.22,49.55-3.18a128.07,128.07,0,0,1,17.19.16c10.8.84,21.57,3,32.36,3,70.37.28,140.74.14,211.11.14"/><path class="cls-2" d="M883.06,462.27v.07c0,.35,0,.66,0,1-19.63,1-40.31-1-59.94-.77,19.63-.18,40.31-.29,59.94-1.27C883.05,461.6,883.05,461.93,883.06,462.27Z"/><path class="cls-4" d="M865.71,582.59l86.57-7.26,50.11,0c7.51.78,9.78-2.81,9.57-10-.41-13.33-.05-26.69,0-40,.9-16.05,1.87-32.1,2.56-48.17.07-1.62-1.66-3.31-2.55-5H983.35V326H899V440.75q-.11,18.44-.2,36.87H869.3Z"/><path class="cls-5" d="M1326.63,328.25v3l-3.42-1.49Z"/><path class="cls-4" d="M486.24,145.54v28.92q-.5,40.93-1,81.86c-1.53-.28-3.28-.17-4.55-.9-28.21-16.35-56.35-32.84-84.6-49.12-2.68-1.55-6-2-10.87-3.55v59.72q0,43.81.1,87.61v78.18q0,43.76-.08,87.49l-31.29,0,0-193.87V300.82l-41.77-1.61c.27-19.62,1.24-39.25.56-58.82-.4-11.1,2-20.13,10.11-27.63,25.37-16.59,17.1-43,18.65-67.22Z"/><path class="cls-4" d="M1350.19,339.94c27.23-.24,68.49-1.84,95.73-2.07-2.28,2.59-18.06,7.75-20.92,8.94-20.67,8.68-41.55,16.84-62.36,25.16-1.05,5.48-3,11-3,16.44-.23,43.51-.12,87-.11,130.54V594c-10.47-.2-18.63-.2-31.48,0l0-43.77.09-118.86c6.45.71,9.22-1.76,9.09-8.63-.28-14.84.15-29.7.28-44.54q0-6.25,0-12.51v-25Z"/><path class="cls-4" d="M1649.62,337.81v90.8c-40.64.91-81.27,1.68-121.89,3-2.88.09-5.63,3.95-8.45,6.05q0,9.31,0,18.61.06,67.35.11,134.69-.08,10.92-.14,21.85v86.55h-43.94l3.25-99.08c0-2.36,0-3.38,0-6.44,0-5.1-.29-10.7-.17-16.16.36-16.43.08-32.86,0-49.29q.09-43.82.14-87.62-.09-51.4-.21-102.79l12.91-.15Z"/><path class="cls-2" d="M648.38,564.73c-.23.19-2.16-.89-2.11-1.17a14.12,14.12,0,0,1,1.38-3.31l2.82,1.57A14.77,14.77,0,0,1,648.38,564.73Z"/><path class="cls-2" d="M119,652.92l0-62q0-43.78,0-87.57-.07-15.65-.14-31.3,0-31.26-.06-62.54c.47-10.42-.55-21.64-.55-33.87l71.58-.16c1.28-25.84,2.48-49.8,3.78-75.86h70.27l7.95-1,40.37.61L354,300.82v21.09l0,193.87,31.29,0q0-43.74.08-87.49V350.08q0-43.8-.1-87.61V202.75c4.86,1.55,8.19,2,10.87,3.55,28.25,16.28,56.39,32.77,84.6,49.12,1.27.73,3,.62,4.55.9,9,6,17.74,12.39,27,17.93,6,3.59,8.55,7.83,8.34,15-.59,21.3-.46,42.63-.6,63.94q0,21.9,0,43.79.5,18.06,1,36.14Q520.49,476,520,519q0,31.32,0,62.62l90.1.48c11.41-11.64,24.42-23.31,35.24-34.94q0-28.14,0-56.29c0-3.14,0-6.27,0-9.41v-6.22q-.08-14.1-.13-28.2c.32-7.06,5.51-6.24,10.16-6.25,13,0,26,.08,39.05,0,14.15-.11,16.37-1.93,16.49-16.08.27-32.22.48-64.44-.15-96.64-.15-8.1,2.88-12.17,9.5-15h161.4c.74,2.62,1.73,4.51,1.73,6.39q.2,65.59.13,131.17c0,2.75-.48,11.75-.48,11.75l1,113.12,49.35-.13,69,0c8.12.17,9.14.17,9.57-10-.41-13.33-.05-26.69,0-40,.9-16.05-.09-30.59.59-46.67.07-1.61.31-4.81-.58-6.47.18-24.78.22-49.56.6-74.33.31-20.1,1-40.21,1.57-60.32-.54-25.82-.07-108.25,2.49-111.76l70.46-.92h43V146.62h98.21l19.85.57,37.73-1c.47,17.45,1.41,37.24,1.87,53.62V253h38.93v75.25l-3.42,1.49,3.42,1.49q0,23.52,0,47,.75,26.57,1.51,53.12l-.09,118.86q0,17.79,0,35.57l31.47.16V519c0-43.51-1.33-140.93-.28-146.41,20.81-8.32,107.26-45.15,117.92-48.82.45,5.31.83,9.76,1.2,14.23q.11,51.39.21,102.79-.06,43.81-.14,87.62c0,16.43.31,32.86,0,49.29-.08,3.72.16,11.93.19,11.93L1477.24,652c-.56,12.42.29,34.39.29,46.85,16,0,27.06.49,41.73.49V612.78q.06-10.92.14-21.85-.06-67.33-.11-134.69,0-9.3,0-18.61c2.82-2.1,5.57-6,8.45-6.05,40.62-1.29,81.25-2.06,121.89-3,9.12.63,18.27,1.9,27.34,1.48,2.56-.12,4.88-5.17,7.31-8q0-45.4.08-90.82c-.47-9.31-1.31-18.62-1.35-27.93-.15-33.87,0-67.75-.1-101.63,0-6.29.13-11.73,8.6-11.2V116.71h142.17v120h61.89v18.84q-.21,37.86-.43,75.73.06,43.76.14,87.53-.07,18.78-.14,37.57c-.69,10.62.39,19.27,11.34,26.15.35.1,32,26.62,31.63,27.27,6.74,5.2,15.16,8.24,22.83,12.24V759.76H0V578.37c24,0,48-.08,71.92,0,7.62,0,13.73.1,13.73.1s0,8.16-.43,15.63c-1,17.61-.5,35.35-.61,53q.09,3.11.17,6.2c0,17.62-.15,59.74-.15,59.74s-.61,17.88,0,18.36,32.77,1.26,34.38-.11c0-19.47.15-39.65-.15-59.82l.12-18.13"/><path class="cls-2" d="M647.66,560.25l2.81,1.57a14.48,14.48,0,0,1-2.09,2.91c-.22.19-2.17-.88-2.12-1.17A14.39,14.39,0,0,1,647.66,560.25Z"/></g><rect class="cls-6" x="293.67" y="398.03" width="31.61" height="42.83"/><rect class="cls-6" x="401.76" y="402.11" width="31.61" height="42.83"/><rect class="cls-6" x="681.15" y="473.49" width="31.61" height="42.83"/><rect class="cls-6" x="227.39" y="316.45" width="31.61" height="42.83"/><rect class="cls-6" x="1845.63" y="268.53" width="31.61" height="42.83"/><rect class="cls-6" x="1414.31" y="409.25" width="31.61" height="42.83"/><rect class="cls-3" x="664.84" y="262.41" width="31.61" height="42.83"/><rect class="cls-3" x="600.6" y="262.41" width="31.61" height="42.83"/><rect class="cls-3" x="1590.71" y="360.3" width="31.61" height="42.83"/><rect class="cls-6" x="1779.35" y="350.1" width="31.61" height="42.83"/><rect class="cls-6" x="401.76" y="335.83" width="31.61" height="42.83"/><rect class="cls-6" x="145.82" y="398.03" width="31.61" height="42.83"/></g></g></svg>